<svg xmlns="http://www.w3.org/2000/svg" width="1100" height="1700">
<style>text{font-family:Arial;font-size:12px}.title{font-weight:bold}</style>
<rect x="70" y="40.0" width="1010" height="800.0" fill="none" stroke="#ccc"/>
<polyline points="70.00,830.00 70.34,830.00 70.67,830.00 71.01,830.00 71.35,830.00 71.68,830.00 72.02,830.00 72.36,830.00 72.69,830.00 73.03,830.00 73.37,830.00 73.70,830.00 74.04,830.00 74.38,830.00 74.71,830.00 75.05,830.00 75.39,830.00 75.72,830.00 76.06,830.00 76.40,830.00 76.73,830.00 77.07,830.00 77.41,830.00 77.74,830.00 78.08,830.00 78.42,830.00 78.75,830.00 79.09,830.00 79.43,829.99 79.76,829.99 80.10,829.99 80.44,829.99 80.77,829.99 81.11,829.99 81.45,829.99 81.78,829.99 82.12,829.99 82.46,829.99 82.79,829.99 83.13,829.99 83.47,829.99 83.80,829.98 84.14,829.98 84.48,829.98 84.81,829.98 85.15,829.98 85.49,829.98 85.82,829.98 86.16,829.97 86.50,829.97 86.83,829.97 87.17,829.97 87.51,829.97 87.84,829.97 88.18,829.96 88.52,829.96 88.85,829.96 89.19,829.96 89.53,829.96 89.86,829.95 90.20,829.95 90.54,829.95 90.87,829.95 91.21,829.94 91.55,829.94 91.88,829.94 92.22,829.93 92.56,829.93 92.89,829.93 93.23,829.92 93.57,829.92 93.90,829.92 94.24,829.91 94.58,829.91 94.91,829.91 95.25,829.90 95.59,829.90 95.92,829.90 96.26,829.89 96.60,829.89 96.93,829.88 97.27,829.88 97.61,829.87 97.94,829.87 98.28,829.86 98.62,829.86 98.95,829.85 99.29,829.85 99.63,829.84 99.96,829.84 100.30,829.83 100.64,829.83 100.97,829.82 101.31,829.82 101.65,829.81 101.98,829.80 102.32,829.80 102.66,829.79 102.99,829.79 103.33,829.78 103.67,829.77 104.00,829.77 104.34,829.76 104.68,829.75 105.01,829.74 105.35,829.74 105.69,829.73 106.02,829.72 106.36,829.71 106.70,829.71 107.03,829.70 107.37,829.69 107.71,829.68 108.04,829.67 108.38,829.66 108.72,829.65 109.05,829.65 109.39,829.64 109.73,829.63 110.06,829.62 110.40,829.61 110.74,829.60 111.07,829.59 111.41,829.58 111.75,829.57 112.08,829.56 112.42,829.55 112.76,829.54 113.09,829.52 113.43,829.51 113.77,829.50 114.10,829.49 114.44,829.48 114.78,829.47 115.11,829.45 115.45,829.44 115.79,829.43 116.12,829.42 116.46,829.40 116.80,829.39 117.13,829.38 117.47,829.36 117.81,829.35 118.14,829.34 118.48,829.32 118.82,829.31 119.15,829.30 119.49,829.28 119.83,829.27 120.16,829.25 120.50,829.24 120.84,829.22 121.17,829.21 121.51,829.19 121.85,829.17 122.18,829.16 122.52,829.14 122.86,829.13 123.19,829.11 123.53,829.09 123.87,829.07 124.20,829.06 124.54,829.04 124.88,829.02 125.21,829.00 125.55,828.99 125.89,828.97 126.22,828.95 126.56,828.93 126.90,828.91 127.23,828.89 127.57,828.87 127.91,828.85 128.24,828.83 128.58,828.81 128.92,828.79 129.25,828.77 129.59,828.75 129.93,828.73 130.26,828.71 130.60,828.69 130.94,828.66 131.27,828.64 131.61,828.62 131.95,828.60 132.28,828.57 132.62,828.55 132.96,828.53 133.29,828.50 133.63,828.48 133.97,828.46 134.30,828.43 134.64,828.41 134.98,828.38 135.31,828.36 135.65,828.33 135.99,828.31 136.32,828.28 136.66,828.25 137.00,828.23 137.33,828.20 137.67,828.17 138.01,828.15 138.34,828.12 138.68,828.09 139.02,828.06 139.35,828.04 139.69,828.01 140.03,827.98 140.36,827.95 140.70,827.92 141.04,827.89 141.37,827.86 141.71,827.83 142.05,827.80 142.38,827.77 142.72,827.74 143.06,827.71 143.39,827.68 143.73,827.64 144.07,827.61 144.40,827.58 144.74,827.55 145.08,827.51 145.41,827.48 145.75,827.45 146.09,827.41 146.42,827.38 146.76,827.34 147.10,827.31 147.43,827.27 147.77,827.24 148.11,827.20 148.44,827.17 148.78,827.13 149.12,827.10 149.45,827.06 149.79,827.02 150.13,826.98 150.46,826.95 150.80,826.91 151.14,826.87 151.47,826.83 151.81,826.79 152.15,826.75 152.48,826.71 152.82,826.67 153.16,826.63 153.49,826.59 153.83,826.55 154.17,826.51 154.50,826.47 154.84,826.43 155.18,826.38 155.51,826.34 155.85,826.30 156.19,826.25 156.52,826.21 156.86,826.17 157.20,826.12 157.53,826.08 157.87,826.03 158.21,825.99 158.54,825.94 158.88,825.90 159.22,825.85 159.55,825.80 159.89,825.76 160.23,825.71 160.56,825.66 160.90,825.61 161.24,825.57 161.57,825.52 161.91,825.47 162.25,825.42 162.58,825.37 162.92,825.32 163.26,825.27 163.59,825.22 163.93,825.17 164.27,825.12 164.60,825.06 164.94,825.01 165.28,824.96 165.61,824.91 165.95,824.85 166.29,824.80 166.62,824.74 166.96,824.69 167.30,824.63 167.63,824.58 167.97,824.52 168.31,824.47 168.64,824.41 168.98,824.36 169.32,824.30 169.65,824.24 169.99,824.18 170.33,824.12 170.66,824.07 171.00,824.01 171.34,823.95 171.67,823.89 172.01,823.83 172.35,823.77 172.68,823.71 173.02,823.65 173.36,823.58 173.69,823.52 174.03,823.46 174.37,823.40 174.70,823.33 175.04,823.27 175.38,823.21 175.71,823.14 176.05,823.08 176.39,823.01 176.72,822.95 177.06,822.88 177.40,822.81 177.73,822.75 178.07,822.68 178.41,822.61 178.74,822.54 179.08,822.47 179.42,822.41 179.75,822.34 180.09,822.27 180.43,822.20 180.76,822.13 181.10,822.06 181.44,821.98 181.77,821.91 182.11,821.84 182.45,821.77 182.78,821.69 183.12,821.62 183.46,821.55 183.79,821.47 184.13,821.40 184.47,821.32 184.80,821.25 185.14,821.17 185.48,821.09 185.81,821.02 186.15,820.94 186.49,820.86 186.82,820.78 187.16,820.70 187.50,820.63 187.83,820.55 188.17,820.47 188.51,820.39 188.84,820.30 189.18,820.22 189.52,820.14 189.85,820.06 190.19,819.98 190.53,819.89 190.86,819.81 191.20,819.73 191.54,819.64 191.87,819.56 192.21,819.47 192.55,819.39 192.88,819.30 193.22,819.21 193.56,819.12 193.89,819.04 194.23,818.95 194.57,818.86 194.90,818.77 195.24,818.68 195.58,818.59 195.91,818.50 196.25,818.41 196.59,818.32 196.92,818.23 197.26,818.13 197.60,818.04 197.93,817.95 198.27,817.85 198.61,817.76 198.94,817.67 199.28,817.57 199.62,817.47 199.95,817.38 200.29,817.28 200.63,817.18 200.96,817.09 201.30,816.99 201.64,816.89 201.97,816.79 202.31,816.69 202.65,816.59 202.98,816.49 203.32,816.39 203.66,816.29 203.99,816.19 204.33,816.08 204.67,815.98 205.00,815.88 205.34,815.77 205.68,815.67 206.01,815.56 206.35,815.46 206.69,815.35 207.02,815.25 207.36,815.14 207.70,815.03 208.03,814.92 208.37,814.81 208.71,814.71 209.04,814.60 209.38,814.49 209.72,814.37 210.05,814.26 210.39,814.15 210.73,814.04 211.06,813.93 211.40,813.81 211.74,813.70 212.07,813.59 212.41,813.47 212.75,813.36 213.08,813.24 213.42,813.12 213.76,813.01 214.09,812.89 214.43,812.77 214.77,812.65 215.10,812.53 215.44,812.41 215.78,812.29 216.11,812.17 216.45,812.05 216.79,811.93 217.12,811.81 217.46,811.69 217.80,811.56 218.13,811.44 218.47,811.31 218.81,811.19 219.14,811.06 219.48,810.94 219.82,810.81 220.15,810.69 220.49,810.56 220.83,810.43 221.16,810.30 221.50,810.17 221.84,810.04 222.17,809.91 222.51,809.78 222.85,809.65 223.18,809.52 223.52,809.38 223.86,809.25 224.19,809.12 224.53,808.98 224.87,808.85 225.20,808.71 225.54,808.58 225.88,808.44 226.21,808.30 226.55,808.17 226.89,808.03 227.22,807.89 227.56,807.75 227.90,807.61 228.23,807.47 228.57,807.33 228.91,807.19 229.24,807.04 229.58,806.90 229.92,806.76 230.25,806.61 230.59,806.47 230.93,806.32 231.26,806.18 231.60,806.03 231.94,805.88 232.27,805.74 232.61,805.59 232.95,805.44 233.28,805.29 233.62,805.14 233.96,804.99 234.29,804.84 234.63,804.69 234.97,804.54 235.30,804.38 235.64,804.23 235.98,804.08 236.31,803.92 236.65,803.77 236.99,803.61 237.32,803.45 237.66,803.30 238.00,803.14 238.33,802.98 238.67,802.82 239.01,802.66 239.34,802.50 239.68,802.34 240.02,802.18 240.35,802.02 240.69,801.86 241.03,801.69 241.36,801.53 241.70,801.37 242.04,801.20 242.37,801.04 242.71,800.87 243.05,800.70 243.38,800.54 243.72,800.37 244.06,800.20 244.39,800.03 244.73,799.86 245.07,799.69 245.40,799.52 245.74,799.35 246.08,799.18 246.41,799.00 246.75,798.83 247.09,798.66 247.42,798.48 247.76,798.31 248.10,798.13 248.43,797.96 248.77,797.78 249.11,797.60 249.44,797.43 249.78,797.25 250.12,797.07 250.45,796.89 250.79,796.71 251.13,796.53 251.46,796.35 251.80,796.16 252.14,795.98 252.47,795.80 252.81,795.61 253.15,795.43 253.48,795.25 253.82,795.06 254.16,794.87 254.49,794.69 254.83,794.50 255.17,794.31 255.50,794.12 255.84,793.93 256.18,793.75 256.51,793.56 256.85,793.36 257.19,793.17 257.52,792.98 257.86,792.79 258.20,792.60 258.53,792.40 258.87,792.21 259.21,792.01 259.54,791.82 259.88,791.62 260.22,791.43 260.55,791.23 260.89,791.03 261.23,790.83 261.56,790.64 261.90,790.44 262.24,790.24 262.57,790.04 262.91,789.83 263.25,789.63 263.58,789.43 263.92,789.23 264.26,789.03 264.59,788.82 264.93,788.62 265.27,788.41 265.60,788.21 265.94,788.00 266.28,787.79 266.61,787.59 266.95,787.38 267.29,787.17 267.62,786.96 267.96,786.75 268.30,786.54 268.63,786.33 268.97,786.12 269.31,785.91 269.64,785.70 269.98,785.48 270.32,785.27 270.65,785.06 270.99,784.84 271.33,784.63 271.66,784.41 272.00,784.20 272.34,783.98 272.67,783.76 273.01,783.55 273.35,783.33 273.68,783.11 274.02,782.89 274.36,782.67 274.69,782.45 275.03,782.23 275.37,782.01 275.70,781.78 276.04,781.56 276.38,781.34 276.71,781.11 277.05,780.89 277.39,780.67 277.72,780.44 278.06,780.21 278.40,779.99 278.73,779.76 279.07,779.53 279.41,779.30 279.74,779.08 280.08,778.85 280.42,778.62 280.75,778.39 281.09,778.16 281.43,777.93 281.76,777.69 282.10,777.46 282.44,777.23 282.77,776.99 283.11,776.76 283.45,776.53 283.78,776.29 284.12,776.06 284.46,775.82 284.79,775.58 285.13,775.35 285.47,775.11 285.80,774.87 286.14,774.63 286.48,774.39 286.81,774.15 287.15,773.91 287.49,773.67 287.82,773.43 288.16,773.19 288.50,772.95 288.83,772.70 289.17,772.46 289.51,772.22 289.84,771.97 290.18,771.73 290.52,771.48 290.85,771.23 291.19,770.99 291.53,770.74 291.86,770.49 292.20,770.24 292.54,770.00 292.87,769.75 293.21,769.50 293.55,769.25 293.88,769.00 294.22,768.75 294.56,768.49 294.89,768.24 295.23,767.99 295.57,767.74 295.90,767.48 296.24,767.23 296.58,766.97 296.91,766.72 297.25,766.46 297.59,766.21 297.92,765.95 298.26,765.69 298.60,765.43 298.93,765.17 299.27,764.92 299.61,764.66 299.94,764.40 300.28,764.14 300.62,763.88 300.95,763.61 301.29,763.35 301.63,763.09 301.96,762.83 302.30,762.56 302.64,762.30 302.97,762.04 303.31,761.77 303.65,761.51 303.98,761.24 304.32,760.97 304.66,760.71 304.99,760.44 305.33,760.17 305.67,759.90 306.00,759.63 306.34,759.36 306.68,759.10 307.01,758.82 307.35,758.55 307.69,758.28 308.02,758.01 308.36,757.74 308.70,757.47 309.03,757.19 309.37,756.92 309.71,756.65 310.04,756.37 310.38,756.10 310.72,755.82 311.05,755.54 311.39,755.27 311.73,754.99 312.06,754.71 312.40,754.43 312.74,754.16 313.07,753.88 313.41,753.60 313.75,753.32 314.08,753.04 314.42,752.76 314.76,752.48 315.09,752.19 315.43,751.91 315.77,751.63 316.10,751.34 316.44,751.06 316.78,750.78 317.11,750.49 317.45,750.21 317.79,749.92 318.12,749.64 318.46,749.35 318.80,749.06 319.13,748.77 319.47,748.49 319.81,748.20 320.14,747.91 320.48,747.62 320.82,747.33 321.15,747.04 321.49,746.75 321.83,746.46 322.16,746.17 322.50,745.87 322.84,745.58 323.17,745.29 323.51,745.00 323.85,744.70 324.18,744.41 324.52,744.11 324.86,743.82 325.19,743.52 325.53,743.22 325.87,742.93 326.20,742.63 326.54,742.33 326.88,742.04 327.21,741.74 327.55,741.44 327.89,741.14 328.22,740.84 328.56,740.54 328.90,740.24 329.23,739.94 329.57,739.63 329.91,739.33 330.24,739.03 330.58,738.73 330.92,738.42 331.25,738.12 331.59,737.82 331.93,737.51 332.26,737.21 332.60,736.90 332.94,736.59 333.27,736.29 333.61,735.98 333.95,735.67 334.28,735.37 334.62,735.06 334.96,734.75 335.29,734.44 335.63,734.13 335.97,733.82 336.30,733.51 336.64,733.20 336.98,732.89 337.31,732.58 337.65,732.26 337.99,731.95 338.32,731.64 338.66,731.33 339.00,731.01 339.33,730.70 339.67,730.38 340.01,730.07 340.34,729.75 340.68,729.44 341.02,729.12 341.35,728.80 341.69,728.49 342.03,728.17 342.36,727.85 342.70,727.53 343.04,727.21 343.37,726.89 343.71,726.57 344.05,726.25 344.38,725.93 344.72,725.61 345.06,725.29 345.39,724.97 345.73,724.65 346.07,724.32 346.40,724.00 346.74,723.68 347.08,723.35 347.41,723.03 347.75,722.70 348.09,722.38 348.42,722.05 348.76,721.73 349.10,721.40 349.43,721.08 349.77,720.75 350.11,720.42 350.44,720.09 350.78,719.76 351.12,719.44 351.45,719.11 351.79,718.78 352.13,718.45 352.46,718.12 352.80,717.79 353.14,717.46 353.47,717.12 353.81,716.79 354.15,716.46 354.48,716.13 354.82,715.79 355.16,715.46 355.49,715.13 355.83,714.79 356.17,714.46 356.50,714.12 356.84,713.79 357.18,713.45 357.51,713.12 357.85,712.78 358.19,712.44 358.52,712.10 358.86,711.77 359.20,711.43 359.53,711.09 359.87,710.75 360.21,710.41 360.54,710.07 360.88,709.73 361.22,709.39 361.55,709.05 361.89,708.71 362.23,708.37 362.56,708.03 362.90,707.68 363.24,707.34 363.57,707.00 363.91,706.66 364.25,706.31 364.58,705.97 364.92,705.62 365.26,705.28 365.59,704.93 365.93,704.59 366.27,704.24 366.60,703.89 366.94,703.55 367.28,703.20 367.61,702.85 367.95,702.51 368.29,702.16 368.62,701.81 368.96,701.46 369.30,701.11 369.63,700.76 369.97,700.41 370.31,700.06 370.64,699.71 370.98,699.36 371.32,699.01 371.65,698.66 371.99,698.30 372.33,697.95 372.66,697.60 373.00,697.25 373.34,696.89 373.67,696.54 374.01,696.18 374.35,695.83 374.68,695.47 375.02,695.12 375.36,694.76 375.69,694.41 376.03,694.05 376.37,693.69 376.70,693.34 377.04,692.98 377.38,692.62 377.71,692.26 378.05,691.91 378.39,691.55 378.72,691.19 379.06,690.83 379.40,690.47 379.73,690.11 380.07,689.75 380.41,689.39 380.74,689.03 381.08,688.67 381.42,688.30 381.75,687.94 382.09,687.58 382.43,687.22 382.76,686.85 383.10,686.49 383.44,686.13 383.77,685.76 384.11,685.40 384.45,685.03 384.78,684.67 385.12,684.30 385.46,683.94 385.79,683.57 386.13,683.21 386.47,682.84 386.80,682.47 387.14,682.10 387.48,681.74 387.81,681.37 388.15,681.00 388.49,680.63 388.82,680.26 389.16,679.89 389.50,679.52 389.83,679.15 390.17,678.78 390.51,678.41 390.84,678.04 391.18,677.67 391.52,677.30 391.85,676.93 392.19,676.56 392.53,676.19 392.86,675.81 393.20,675.44 393.54,675.07 393.87,674.69 394.21,674.32 394.55,673.95 394.88,673.57 395.22,673.20 395.56,672.82 395.89,672.45 396.23,672.07 396.57,671.69 396.90,671.32 397.24,670.94 397.58,670.56 397.91,670.19 398.25,669.81 398.59,669.43 398.92,669.05 399.26,668.68 399.60,668.30 399.93,667.92 400.27,667.54 400.61,667.16 400.94,666.78 401.28,666.40 401.62,666.02 401.95,665.64 402.29,665.26 402.63,664.88 402.96,664.50 403.30,664.12 403.64,663.73 403.97,663.35 404.31,662.97 404.65,662.59 404.98,662.20 405.32,661.82 405.66,661.44 405.99,661.05 406.33,660.67 406.67,660.27 407.00,659.85 407.34,659.43 407.68,659.01 408.01,658.59 408.35,658.17 408.69,657.75 409.02,657.33 409.36,656.91 409.70,656.49 410.03,656.07 410.37,655.66 410.71,655.23 411.04,654.81 411.38,654.39 411.72,653.97 412.05,653.55 412.39,653.13 412.73,652.71 413.06,652.29 413.40,651.87 413.74,651.45 414.07,651.03 414.41,650.61 414.75,650.18 415.08,649.76 415.42,649.34 415.76,648.92 416.09,648.50 416.43,648.07 416.77,647.65 417.10,647.23 417.44,646.80 417.78,646.38 418.11,645.96 418.45,645.54 418.79,645.11 419.12,644.69 419.46,644.27 419.80,643.84 420.13,643.42 420.47,642.99 420.81,642.57 421.14,642.15 421.48,641.72 421.82,641.30 422.15,640.87 422.49,640.45 422.83,640.02 423.16,639.60 423.50,639.17 423.84,638.75 424.17,638.32 424.51,637.90 424.85,637.47 425.18,637.04 425.52,636.62 425.86,636.19 426.19,635.76 426.53,635.34 426.87,634.91 427.20,634.49 427.54,634.06 427.88,633.63 428.21,633.20 428.55,632.78 428.89,632.35 429.22,631.92 429.56,631.50 429.90,631.07 430.23,630.64 430.57,630.21 430.91,629.78 431.24,629.36 431.58,628.93 431.92,628.50 432.25,628.07 432.59,627.64 432.93,627.21 433.26,626.78 433.60,626.35 433.94,625.92 434.27,625.50 434.61,625.07 434.95,624.64 435.28,624.21 435.62,623.78 435.96,623.35 436.29,622.92 436.63,622.49 436.97,622.06 437.30,621.62 437.64,621.19 437.98,620.76 438.31,620.33 438.65,619.90 438.99,619.47 439.32,619.04 439.66,618.61 440.00,618.18 440.33,617.74 440.67,617.31 441.01,616.88 441.34,616.45 441.68,616.02 442.02,615.58 442.35,615.15 442.69,614.72 443.03,614.29 443.36,613.85 443.70,613.42 444.04,612.99 444.37,612.55 444.71,612.12 445.05,611.69 445.38,611.25 445.72,610.82 446.06,610.39 446.39,609.95 446.73,609.52 447.07,609.08 447.40,608.65 447.74,608.21 448.08,607.78 448.41,607.35 448.75,606.91 449.09,606.48 449.42,606.04 449.76,605.61 450.10,605.17 450.43,604.73 450.77,604.30 451.11,603.86 451.44,603.43 451.78,602.99 452.12,602.56 452.45,602.12 452.79,601.68 453.13,601.25 453.46,600.81 453.80,600.37 454.14,599.94 454.47,599.50 454.81,599.06 455.15,598.63 455.48,598.19 455.82,597.75 456.16,597.31 456.49,596.88 456.83,596.44 457.17,596.00 457.50,595.56 457.84,595.12 458.18,594.69 458.51,594.25 458.85,593.81 459.19,593.37 459.52,592.93 459.86,592.49 460.20,592.05 460.53,591.62 460.87,591.18 461.21,590.74 461.54,590.30 461.88,589.86 462.22,589.42 462.55,588.98 462.89,588.54 463.23,588.10 463.56,587.66 463.90,587.22 464.24,586.78 464.57,586.34 464.91,585.90 465.25,585.46 465.58,585.02 465.92,584.58 466.26,584.13 466.59,583.69 466.93,583.25 467.27,582.81 467.60,582.37 467.94,581.93 468.28,581.49 468.61,581.04 468.95,580.60 469.29,580.16 469.62,579.72 469.96,579.28 470.30,578.83 470.63,578.39 470.97,577.95 471.31,577.51 471.64,577.06 471.98,576.62 472.32,576.18 472.65,575.73 472.99,575.29 473.33,574.85 473.66,574.40 474.00,573.96 474.34,573.52 474.67,573.07 475.01,572.63 475.35,572.19 475.68,571.74 476.02,571.30 476.36,570.85 476.69,570.41 477.03,569.96 477.37,569.52 477.70,569.07 478.04,568.63 478.38,568.18 478.71,567.74 479.05,567.29 479.39,566.85 479.72,566.40 480.06,565.96 480.40,565.51 480.73,565.07 481.07,564.62 481.41,564.18 481.74,563.73 482.08,563.28 482.42,562.84 482.75,562.39 483.09,561.94 483.43,561.50 483.76,561.05 484.10,560.61 484.44,560.16 484.77,559.71 485.11,559.26 485.45,558.82 485.78,558.37 486.12,557.92 486.46,557.48 486.79,557.03 487.13,556.58 487.47,556.13 487.80,555.68 488.14,555.24 488.48,554.79 488.81,554.34 489.15,553.89 489.49,553.44 489.82,553.00 490.16,552.55 490.50,552.10 490.83,551.65 491.17,551.20 491.51,550.75 491.84,550.30 492.18,549.85 492.52,549.41 492.85,548.96 493.19,548.51 493.53,548.06 493.86,547.61 494.20,547.16 494.54,546.71 494.87,546.26 495.21,545.81 495.55,545.36 495.88,544.91 496.22,544.46 496.56,544.01 496.89,543.56 497.23,543.11 497.57,542.66 497.90,542.21 498.24,541.76 498.58,541.30 498.91,540.85 499.25,540.40 499.59,539.95 499.92,539.50 500.26,539.05 500.60,538.60 500.93,538.15 501.27,537.69 501.61,537.24 501.94,536.79 502.28,536.34 502.62,535.89 502.95,535.44 503.29,534.98 503.63,534.53 503.96,534.08 504.30,533.63 504.64,533.17 504.97,532.72 505.31,532.27 505.65,531.82 505.98,531.36 506.32,530.91 506.66,530.46 506.99,530.00 507.33,529.55 507.67,529.10 508.00,528.64 508.34,528.19 508.68,527.74 509.01,527.28 509.35,526.83 509.69,526.38 510.02,525.92 510.36,525.47 510.70,525.02 511.03,524.56 511.37,524.11 511.71,523.65 512.04,523.20 512.38,522.74 512.72,522.29 513.05,521.84 513.39,521.38 513.73,520.93 514.06,520.47 514.40,520.02 514.74,519.56 515.07,519.11 515.41,518.65 515.75,518.20 516.08,517.74 516.42,517.29 516.76,516.83 517.09,516.38 517.43,515.92 517.77,515.46 518.10,515.01 518.44,514.55 518.78,514.10 519.11,513.64 519.45,513.19 519.79,512.73 520.12,512.27 520.46,511.82 520.80,511.36 521.13,510.90 521.47,510.45 521.81,509.99 522.14,509.53 522.48,509.08 522.82,508.62 523.15,508.16 523.49,507.71 523.83,507.25 524.16,506.79 524.50,506.34 524.84,505.88 525.17,505.42 525.51,504.97 525.85,504.51 526.18,504.05 526.52,503.59 526.86,503.14 527.19,502.68 527.53,502.22 527.87,501.76 528.20,501.31 528.54,500.85 528.88,500.39 529.21,499.93 529.55,499.47 529.89,499.02 530.22,498.56 530.56,498.10 530.90,497.64 531.23,497.18 531.57,496.72 531.91,496.27 532.24,495.81 532.58,495.35 532.92,494.89 533.25,494.43 533.59,493.97 533.93,493.51 534.26,493.06 534.60,492.60 534.94,492.14 535.27,491.68 535.61,491.22 535.95,490.76 536.28,490.30 536.62,489.84 536.96,489.38 537.29,488.92 537.63,488.46 537.97,488.00 538.30,487.54 538.64,487.08 538.98,486.62 539.31,486.17 539.65,485.71 539.99,485.25 540.32,484.79 540.66,484.33 541.00,483.87 541.33,483.41 541.67,482.95 542.01,482.49 542.34,482.03 542.68,481.56 543.02,481.10 543.35,480.64 543.69,480.18 544.03,479.72 544.36,479.26 544.70,478.80 545.04,478.34 545.37,477.88 545.71,477.42 546.05,476.96 546.38,476.50 546.72,476.04 547.06,475.58 547.39,475.12 547.73,474.66 548.07,474.19 548.40,473.73 548.74,473.27 549.08,472.81 549.41,472.35 549.75,471.89 550.09,471.43 550.42,470.97 550.76,470.51 551.10,470.04 551.43,469.58 551.77,469.12 552.11,468.66 552.44,468.20 552.78,467.74 553.12,467.27 553.45,466.81 553.79,466.35 554.13,465.89 554.46,465.43 554.80,464.97 555.14,464.50 555.47,464.04 555.81,463.58 556.15,463.12 556.48,462.66 556.82,462.19 557.16,461.73 557.49,461.27 557.83,460.81 558.17,460.35 558.50,459.88 558.84,459.42 559.18,458.96 559.51,458.50 559.85,458.03 560.19,457.57 560.52,457.11 560.86,456.65 561.20,456.18 561.53,455.72 561.87,455.26 562.21,454.80 562.54,454.33 562.88,453.87 563.22,453.41 563.55,452.95 563.89,452.48 564.23,452.02 564.56,451.56 564.90,451.10 565.24,450.63 565.57,450.17 565.91,449.71 566.25,449.24 566.58,448.78 566.92,448.32 567.26,447.86 567.59,447.39 567.93,446.93 568.27,446.47 568.60,446.00 568.94,445.54 569.28,445.08 569.61,444.62 569.95,444.15 570.29,443.69 570.62,443.23 570.96,442.76 571.30,442.30 571.63,441.84 571.97,441.37 572.31,440.91 572.64,440.45 572.98,439.98 573.32,439.52 573.65,439.06 573.99,438.59 574.33,438.13 574.66,437.67 575.00,437.20 575.34,436.74 575.67,436.28 576.01,435.81 576.35,435.35 576.68,434.89 577.02,434.42 577.36,433.96 577.69,433.50 578.03,433.03 578.37,432.57 578.70,432.11 579.04,431.64 579.38,431.18 579.71,430.72 580.05,430.25 580.39,429.79 580.72,429.33 581.06,428.86 581.40,428.40 581.73,427.94 582.07,427.47 582.41,427.01 582.74,426.54 583.08,426.08 583.42,425.62 583.75,425.15 584.09,424.69 584.43,424.23 584.76,423.76 585.10,423.30 585.44,422.84 585.77,422.37 586.11,421.91 586.45,421.45 586.78,420.98 587.12,420.52 587.46,420.06 587.79,419.59 588.13,419.13 588.47,418.67 588.80,418.20 589.14,417.74 589.48,417.27 589.81,416.81 590.15,416.35 590.49,415.88 590.82,415.42 591.16,414.96 591.50,414.49 591.83,414.03 592.17,413.57 592.51,413.10 592.84,412.64 593.18,412.18 593.52,411.71 593.85,411.25 594.19,410.79 594.53,410.32 594.86,409.86 595.20,409.40 595.54,408.93 595.87,408.47 596.21,408.01 596.55,407.54 596.88,407.08 597.22,406.62 597.56,406.15 597.89,405.69 598.23,405.23 598.57,404.77 598.90,404.30 599.24,403.84 599.58,403.38 599.91,402.91 600.25,402.45 600.59,401.99 600.92,401.52 601.26,401.06 601.60,400.60 601.93,400.13 602.27,399.67 602.61,399.21 602.94,398.75 603.28,398.28 603.62,397.82 603.95,397.36 604.29,396.89 604.63,396.43 604.96,395.97 605.30,395.51 605.64,395.04 605.97,394.58 606.31,394.12 606.65,393.66 606.98,393.19 607.32,392.73 607.66,392.27 607.99,391.81 608.33,391.34 608.67,390.88 609.00,390.42 609.34,389.96 609.68,389.49 610.01,389.03 610.35,388.57 610.69,388.11 611.02,387.65 611.36,387.18 611.70,386.72 612.03,386.26 612.37,385.80 612.71,385.34 613.04,384.87 613.38,384.41 613.72,383.95 614.05,383.49 614.39,383.03 614.73,382.57 615.06,382.10 615.40,381.64 615.74,381.18 616.07,380.72 616.41,380.26 616.75,379.80 617.08,379.33 617.42,378.87 617.76,378.41 618.09,377.95 618.43,377.49 618.77,377.03 619.10,376.57 619.44,376.11 619.78,375.65 620.11,375.18 620.45,374.72 620.79,374.26 621.12,373.80 621.46,373.34 621.80,372.88 622.13,372.42 622.47,371.96 622.81,371.50 623.14,371.04 623.48,370.58 623.82,370.12 624.15,369.66 624.49,369.20 624.83,368.74 625.16,368.28 625.50,367.82 625.84,367.36 626.17,366.90 626.51,366.44 626.85,365.98 627.18,365.52 627.52,365.06 627.86,364.60 628.19,364.14 628.53,363.68 628.87,363.22 629.20,362.76 629.54,362.30 629.88,361.84 630.21,361.38 630.55,360.92 630.89,360.46 631.22,360.00 631.56,359.55 631.90,359.09 632.23,358.63 632.57,358.17 632.91,357.71 633.24,357.25 633.58,356.79 633.92,356.33 634.25,355.88 634.59,355.42 634.93,354.96 635.26,354.50 635.60,354.04 635.94,353.59 636.27,353.13 636.61,352.67 636.95,352.21 637.28,351.75 637.62,351.30 637.96,350.84 638.29,350.38 638.63,349.92 638.97,349.47 639.30,349.01 639.64,348.55 639.98,348.10 640.31,347.64 640.65,347.18 640.99,346.73 641.32,346.27 641.66,345.81 642.00,345.36 642.33,344.90 642.67,344.44 643.01,343.99 643.34,343.53 643.68,343.08 644.02,342.62 644.35,342.17 644.69,341.71 645.03,341.26 645.36,340.80 645.70,340.34 646.04,339.89 646.37,339.43 646.71,338.98 647.05,338.53 647.38,338.07 647.72,337.62 648.06,337.16 648.39,336.71 648.73,336.25 649.07,335.80 649.40,335.35 649.74,334.89 650.08,334.44 650.41,333.99 650.75,333.53 651.09,333.08 651.42,332.63 651.76,332.18 652.10,331.72 652.43,331.27 652.77,330.82 653.11,330.37 653.44,329.91 653.78,329.46 654.12,329.01 654.45,328.56 654.79,328.11 655.13,327.66 655.46,327.21 655.80,326.75 656.14,326.30 656.47,325.85 656.81,325.40 657.15,324.95 657.48,324.50 657.82,324.05 658.16,323.60 658.49,323.15 658.83,322.70 659.17,322.26 659.50,321.81 659.84,321.36 660.18,320.91 660.51,320.46 660.85,320.01 661.19,319.56 661.52,319.12 661.86,318.67 662.20,318.22 662.53,317.77 662.87,317.33 663.21,316.88 663.54,316.43 663.88,315.99 664.22,315.54 664.55,315.09 664.89,314.65 665.23,314.20 665.56,313.76 665.90,313.31 666.24,312.87 666.57,312.42 666.91,311.98 667.25,311.53 667.58,311.09 667.92,310.64 668.26,310.20 668.59,309.76 668.93,309.31 669.27,308.87 669.60,308.43 669.94,307.98 670.28,307.54 670.61,307.10 670.95,306.66 671.29,306.21 671.62,305.77 671.96,305.33 672.30,304.89 672.63,304.45 672.97,304.01 673.31,303.57 673.64,303.13 673.98,302.69 674.32,302.25 674.65,301.81 674.99,301.37 675.33,300.93 675.66,300.49 676.00,300.05 676.34,299.61 676.67,299.18 677.01,298.74 677.35,298.30 677.68,297.86 678.02,297.43 678.36,296.99 678.69,296.55 679.03,296.12 679.37,295.68 679.70,295.24 680.04,294.81 680.38,294.37 680.71,293.94 681.05,293.50 681.39,293.07 681.72,292.64 682.06,292.20 682.40,291.77 682.73,291.33 683.07,290.90 683.41,290.47 683.74,290.04 684.08,289.60 684.42,289.17 684.75,288.74 685.09,288.31 685.43,287.88 685.76,287.45 686.10,287.02 686.44,286.59 686.77,286.16 687.11,285.73 687.45,285.30 687.78,284.87 688.12,284.44 688.46,284.01 688.79,283.58 689.13,283.16 689.47,282.73 689.80,282.30 690.14,281.87 690.48,281.45 690.81,281.02 691.15,280.59 691.49,280.17 691.82,279.74 692.16,279.32 692.50,278.89 692.83,278.47 693.17,278.04 693.51,277.62 693.84,277.20 694.18,276.77 694.52,276.35 694.85,275.93 695.19,275.50 695.53,275.08 695.86,274.66 696.20,274.24 696.54,273.82 696.87,273.40 697.21,272.98 697.55,272.56 697.88,272.14 698.22,271.72 698.56,271.30 698.89,270.88 699.23,270.46 699.57,270.04 699.90,269.62 700.24,269.20 700.58,268.79 700.91,268.37 701.25,267.95 701.59,267.54 701.92,267.12 702.26,266.70 702.60,266.29 702.93,265.87 703.27,265.46 703.61,265.04 703.94,264.63 704.28,264.21 704.62,263.80 704.95,263.39 705.29,262.97 705.63,262.56 705.96,262.15 706.30,261.74 706.64,261.33 706.97,260.91 707.31,260.50 707.65,260.09 707.98,259.68 708.32,259.27 708.66,258.86 708.99,258.45 709.33,258.04 709.67,257.64 710.00,257.23 710.34,256.82 710.68,256.41 711.01,256.00 711.35,255.60 711.69,255.19 712.02,254.78 712.36,254.38 712.70,253.97 713.03,253.57 713.37,253.16 713.71,252.76 714.04,252.35 714.38,251.95 714.72,251.54 715.05,251.14 715.39,250.74 715.73,250.34 716.06,249.93 716.40,249.53 716.74,249.13 717.07,248.73 717.41,248.33 717.75,247.93 718.08,247.53 718.42,247.13 718.76,246.73 719.09,246.33 719.43,245.93 719.77,245.53 720.10,245.13 720.44,244.74 720.78,244.34 721.11,243.94 721.45,243.55 721.79,243.15 722.12,242.75 722.46,242.36 722.80,241.96 723.13,241.57 723.47,241.17 723.81,240.78 724.14,240.39 724.48,239.99 724.82,239.60 725.15,239.21 725.49,238.82 725.83,238.42 726.16,238.03 726.50,237.64 726.84,237.25 727.17,236.86 727.51,236.47 727.85,236.08 728.18,235.69 728.52,235.30 728.86,234.91 729.19,234.53 729.53,234.14 729.87,233.75 730.20,233.36 730.54,232.98 730.88,232.59 731.21,232.21 731.55,231.82 731.89,231.43 732.22,231.05 732.56,230.67 732.90,230.28 733.23,229.90 733.57,229.52 733.91,229.13 734.24,228.75 734.58,228.37 734.92,227.99 735.25,227.61 735.59,227.22 735.93,226.84 736.26,226.46 736.60,226.08 736.94,225.71 737.27,225.33 737.61,224.95 737.95,224.57 738.28,224.19 738.62,223.82 738.96,223.44 739.29,223.06 739.63,222.69 739.97,222.31 740.30,221.94 740.64,221.56 740.98,221.19 741.31,220.81 741.65,220.44 741.99,220.06 742.32,219.69 742.66,219.32 743.00,218.95 743.33,218.58 743.67,218.20 744.01,217.83 744.34,217.46 744.68,217.09 745.02,216.72 745.35,216.36 745.69,215.99 746.03,215.62 746.36,215.25 746.70,214.88 747.04,214.52 747.37,214.15 747.71,213.78 748.05,213.42 748.38,213.05 748.72,212.69 749.06,212.32 749.39,211.96 749.73,211.59 750.07,211.23 750.40,210.87 750.74,210.50 751.08,210.14 751.41,209.78 751.75,209.42 752.09,209.06 752.42,208.70 752.76,208.34 753.10,207.98 753.43,207.62 753.77,207.26 754.11,206.90 754.44,206.54 754.78,206.19 755.12,205.83 755.45,205.47 755.79,205.11 756.13,204.76 756.46,204.40 756.80,204.05 757.14,203.69 757.47,203.34 757.81,202.98 758.15,202.63 758.48,202.28 758.82,201.92 759.16,201.57 759.49,201.22 759.83,200.87 760.17,200.52 760.50,200.17 760.84,199.82 761.18,199.47 761.51,199.12 761.85,198.77 762.19,198.42 762.52,198.07 762.86,197.72 763.20,197.38 763.53,197.03 763.87,196.68 764.21,196.34 764.54,195.99 764.88,195.65 765.22,195.30 765.55,194.96 765.89,194.61 766.23,194.27 766.56,193.92 766.90,193.58 767.24,193.24 767.57,192.90 767.91,192.56 768.25,192.21 768.58,191.87 768.92,191.53 769.26,191.19 769.59,190.85 769.93,190.51 770.27,190.17 770.60,189.84 770.94,189.50 771.28,189.16 771.61,188.82 771.95,188.49 772.29,188.15 772.62,187.81 772.96,187.48 773.30,187.14 773.63,186.81 773.97,186.48 774.31,186.14 774.64,185.81 774.98,185.47 775.32,185.14 775.65,184.81 775.99,184.48 776.33,184.15 776.66,183.82 777.00,183.49 777.34,183.16 777.67,182.83 778.01,182.50 778.35,182.17 778.68,181.84 779.02,181.51 779.36,181.18 779.69,180.86 780.03,180.53 780.37,180.20 780.70,179.88 781.04,179.55 781.38,179.23 781.71,178.90 782.05,178.58 782.39,178.25 782.72,177.93 783.06,177.61 783.40,177.28 783.73,176.96 784.07,176.64 784.41,176.32 784.74,176.00 785.08,175.68 785.42,175.36 785.75,175.04 786.09,174.72 786.43,174.40 786.76,174.08 787.10,173.76 787.44,173.44 787.77,173.13 788.11,172.81 788.45,172.49 788.78,172.18 789.12,171.86 789.46,171.55 789.79,171.23 790.13,170.92 790.47,170.60 790.80,170.29 791.14,169.98 791.48,169.66 791.81,169.35 792.15,169.04 792.49,168.73 792.82,168.42 793.16,168.11 793.50,167.80 793.83,167.49 794.17,167.18 794.51,166.87 794.84,166.56 795.18,166.25 795.52,165.94 795.85,165.64 796.19,165.33 796.53,165.02 796.86,164.72 797.20,164.41 797.54,164.11 797.87,163.80 798.21,163.50 798.55,163.19 798.88,162.89 799.22,162.59 799.56,162.28 799.89,161.98 800.23,161.68 800.57,161.38 800.90,161.08 801.24,160.78 801.58,160.48 801.91,160.18 802.25,159.88 802.59,159.58 802.92,159.28 803.26,158.98 803.60,158.68 803.93,158.39 804.27,158.09 804.61,157.79 804.94,157.50 805.28,157.20 805.62,156.91 805.95,156.61 806.29,156.32 806.63,156.02 806.96,155.73 807.30,155.44 807.64,155.15 807.97,154.85 808.31,154.56 808.65,154.27 808.98,153.98 809.32,153.69 809.66,153.40 809.99,153.11 810.33,152.82 810.67,152.53 811.00,152.24 811.34,151.96 811.68,151.67 812.01,151.38 812.35,151.09 812.69,150.81 813.02,150.52 813.36,150.24 813.70,149.95 814.03,149.67 814.37,149.38 814.71,149.10 815.04,148.82 815.38,148.53 815.72,148.25 816.05,147.97 816.39,147.69 816.73,147.41 817.06,147.13 817.40,146.85 817.74,146.57 818.07,146.29 818.41,146.01 818.75,145.73 819.08,145.45 819.42,145.17 819.76,144.90 820.09,144.62 820.43,144.34 820.77,144.07 821.10,143.79 821.44,143.52 821.78,143.24 822.11,142.97 822.45,142.69 822.79,142.42 823.12,142.15 823.46,141.87 823.80,141.60 824.13,141.33 824.47,141.06 824.81,140.79 825.14,140.52 825.48,140.25 825.82,139.98 826.15,139.71 826.49,139.44 826.83,139.17 827.16,138.91 827.50,138.64 827.84,138.37 828.17,138.10 828.51,137.84 828.85,137.57 829.18,137.31 829.52,137.04 829.86,136.78 830.19,136.51 830.53,136.25 830.87,135.99 831.20,135.73 831.54,135.46 831.88,135.20 832.21,134.94 832.55,134.68 832.89,134.42 833.22,134.16 833.56,133.90 833.90,133.64 834.23,133.38 834.57,133.12 834.91,132.87 835.24,132.61 835.58,132.35 835.92,132.10 836.25,131.84 836.59,131.58 836.93,131.33 837.26,131.07 837.60,130.82 837.94,130.57 838.27,130.31 838.61,130.06 838.95,129.81 839.28,129.56 839.62,129.30 839.96,129.05 840.29,128.80 840.63,128.55 840.97,128.30 841.30,128.05 841.64,127.80 841.98,127.55 842.31,127.31 842.65,127.06 842.99,126.81 843.32,126.56 843.66,126.32 844.00,126.07 844.33,125.83 844.67,125.58 845.01,125.34 845.34,125.09 845.68,124.85 846.02,124.61 846.35,124.36 846.69,124.12 847.03,123.88 847.36,123.64 847.70,123.40 848.04,123.16 848.37,122.92 848.71,122.68 849.05,122.44 849.38,122.20 849.72,121.96 850.06,121.72 850.39,121.48 850.73,121.25 851.07,121.01 851.40,120.77 851.74,120.54 852.08,120.30 852.41,120.07 852.75,119.83 853.09,119.60 853.42,119.37 853.76,119.13 854.10,118.90 854.43,118.67 854.77,118.44 855.11,118.21 855.44,117.98 855.78,117.75 856.12,117.52 856.45,117.29 856.79,117.06 857.13,116.83 857.46,116.60 857.80,116.37 858.14,116.15 858.47,115.92 858.81,115.69 859.15,115.47 859.48,115.24 859.82,115.02 860.16,114.79 860.49,114.57 860.83,114.34 861.17,114.12 861.50,113.90 861.84,113.68 862.18,113.46 862.51,113.23 862.85,113.01 863.19,112.79 863.52,112.57 863.86,112.35 864.20,112.13 864.53,111.92 864.87,111.70 865.21,111.48 865.54,111.26 865.88,111.05 866.22,110.83 866.55,110.61 866.89,110.40 867.23,110.18 867.56,109.97 867.90,109.76 868.24,109.54 868.57,109.33 868.91,109.12 869.25,108.91 869.58,108.69 869.92,108.48 870.26,108.27 870.59,108.06 870.93,107.85 871.27,107.64 871.60,107.43 871.94,107.22 872.28,107.02 872.61,106.81 872.95,106.60 873.29,106.40 873.62,106.19 873.96,105.98 874.30,105.78 874.63,105.57 874.97,105.37 875.31,105.17 875.64,104.96 875.98,104.76 876.32,104.56 876.65,104.36 876.99,104.15 877.33,103.95 877.66,103.75 878.00,103.55 878.34,103.35 878.67,103.15 879.01,102.96 879.35,102.76 879.68,102.56 880.02,102.36 880.36,102.17 880.69,101.97 881.03,101.77 881.37,101.58 881.70,101.38 882.04,101.19 882.38,101.00 882.71,100.80 883.05,100.61 883.39,100.42 883.72,100.22 884.06,100.03 884.40,99.84 884.73,99.65 885.07,99.46 885.41,99.27 885.74,99.08 886.08,98.89 886.42,98.71 886.75,98.52 887.09,98.33 887.43,98.14 887.76,97.96 888.10,97.77 888.44,97.59 888.77,97.40 889.11,97.22 889.45,97.03 889.78,96.85 890.12,96.67 890.46,96.48 890.79,96.30 891.13,96.12 891.47,95.94 891.80,95.76 892.14,95.58 892.48,95.40 892.81,95.22 893.15,95.04 893.49,94.86 893.82,94.68 894.16,94.51 894.50,94.33 894.83,94.15 895.17,93.98 895.51,93.80 895.84,93.63 896.18,93.45 896.52,93.28 896.85,93.11 897.19,92.93 897.53,92.76 897.86,92.59 898.20,92.42 898.54,92.25 898.87,92.08 899.21,91.91 899.55,91.74 899.88,91.57 900.22,91.40 900.56,91.23 900.89,91.06 901.23,90.90 901.57,90.73 901.90,90.56 902.24,90.40 902.58,90.23 902.91,90.07 903.25,89.90 903.59,89.74 903.92,89.58 904.26,89.42 904.60,89.25 904.93,89.09 905.27,88.93 905.61,88.77 905.94,88.61 906.28,88.45 906.62,88.29 906.95,88.13 907.29,87.97 907.63,87.82 907.96,87.66 908.30,87.50 908.64,87.35 908.97,87.19 909.31,87.04 909.65,86.88 909.98,86.73 910.32,86.57 910.66,86.42 910.99,86.27 911.33,86.11 911.67,85.96 912.00,85.81 912.34,85.66 912.68,85.51 913.01,85.36 913.35,85.21 913.69,85.06 914.02,84.91 914.36,84.77 914.70,84.62 915.03,84.47 915.37,84.33 915.71,84.18 916.04,84.03 916.38,83.89 916.72,83.75 917.05,83.60 917.39,83.46 917.73,83.32 918.06,83.17 918.40,83.03 918.74,82.89 919.07,82.75 919.41,82.61 919.75,82.47 920.08,82.33 920.42,82.19 920.76,82.05 921.09,81.91 921.43,81.77 921.77,81.64 922.10,81.50 922.44,81.36 922.78,81.23 923.11,81.09 923.45,80.96 923.79,80.82 924.12,80.69 924.46,80.56 924.80,80.42 925.13,80.29 925.47,80.16 925.81,80.03 926.14,79.89 926.48,79.76 926.82,79.63 927.15,79.50 927.49,79.37 927.83,79.24 928.16,79.12 928.50,78.99 928.84,78.86 929.17,78.73 929.51,78.61 929.85,78.48 930.18,78.35 930.52,78.23 930.86,78.10 931.19,77.98 931.53,77.85 931.87,77.73 932.20,77.61 932.54,77.48 932.88,77.36 933.21,77.24 933.55,77.12 933.89,77.00 934.22,76.88 934.56,76.75 934.90,76.63 935.23,76.52 935.57,76.40 935.91,76.28 936.24,76.16 936.58,76.04 936.92,75.92 937.25,75.81 937.59,75.69 937.93,75.57 938.26,75.46 938.60,75.34 938.94,75.23 939.27,75.11 939.61,75.00 939.95,74.88 940.28,74.77 940.62,74.66 940.96,74.55 941.29,74.43 941.63,74.32 941.97,74.21 942.30,74.10 942.64,73.99 942.98,73.88 943.31,73.77 943.65,73.66 943.99,73.55 944.32,73.44 944.66,73.33 945.00,73.22 945.33,73.12 945.67,73.01 946.01,72.90 946.34,72.80 946.68,72.69 947.02,72.59 947.35,72.48 947.69,72.38 948.03,72.27 948.36,72.17 948.70,72.06 949.04,71.96 949.37,71.86 949.71,71.75 950.05,71.65 950.38,71.55 950.72,71.45 951.06,71.35 951.39,71.25 951.73,71.15 952.07,71.05 952.40,70.95 952.74,70.85 953.08,70.75 953.41,70.65 953.75,70.55 954.09,70.45 954.42,70.36 954.76,70.26 955.10,70.16 955.43,70.07 955.77,69.97 956.11,69.87 956.44,69.78 956.78,69.68 957.12,69.59 957.45,69.50 957.79,69.40 958.13,69.31 958.46,69.21 958.80,69.12 959.14,69.03 959.47,68.94 959.81,68.84 960.15,68.75 960.48,68.66 960.82,68.57 961.16,68.48 961.49,68.39 961.83,68.30 962.17,68.21 962.50,68.12 962.84,68.03 963.18,67.94 963.51,67.86 963.85,67.77 964.19,67.68 964.52,67.59 964.86,67.51 965.20,67.42 965.53,67.33 965.87,67.25 966.21,67.16 966.54,67.08 966.88,66.99 967.22,66.91 967.55,66.82 967.89,66.74 968.23,66.65 968.56,66.57 968.90,66.49 969.24,66.40 969.57,66.32 969.91,66.24 970.25,66.16 970.58,66.08 970.92,65.99 971.26,65.91 971.59,65.83 971.93,65.75 972.27,65.67 972.60,65.59 972.94,65.51 973.28,65.43 973.61,65.35 973.95,65.28 974.29,65.20 974.62,65.12 974.96,65.04 975.30,64.96 975.63,64.89 975.97,64.81 976.31,64.73 976.64,64.66 976.98,64.58 977.32,64.51 977.65,64.43 977.99,64.36 978.33,64.28 978.66,64.21 979.00,64.13 979.34,64.06 979.67,63.98 980.01,63.91 980.35,63.84 980.68,63.76 981.02,63.69 981.36,63.62 981.69,63.55 982.03,63.48 982.37,63.40 982.70,63.33 983.04,63.26 983.38,63.19 983.71,63.12 984.05,63.05 984.39,62.98 984.72,62.91 985.06,62.84 985.40,62.77 985.73,62.70 986.07,62.63 986.41,62.57 986.74,62.50 987.08,62.43 987.42,62.36 987.75,62.29 988.09,62.23 988.43,62.16 988.76,62.09 989.10,62.03 989.44,61.96 989.77,61.89 990.11,61.83 990.45,61.76 990.78,61.70 991.12,61.63 991.46,61.57 991.79,61.50 992.13,61.44 992.47,61.38 992.80,61.31 993.14,61.25 993.48,61.19 993.81,61.12 994.15,61.06 994.49,61.00 994.82,60.94 995.16,60.87 995.50,60.81 995.83,60.75 996.17,60.69 996.51,60.63 996.84,60.57 997.18,60.51 997.52,60.44 997.85,60.38 998.19,60.32 998.53,60.26 998.86,60.20 999.20,60.15 999.54,60.09 999.87,60.03 1000.21,59.97 1000.55,59.91 1000.88,59.85 1001.22,59.79 1001.56,59.74 1001.89,59.68 1002.23,59.62 1002.57,59.56 1002.90,59.51 1003.24,59.45 1003.58,59.39 1003.91,59.34 1004.25,59.28 1004.59,59.22 1004.92,59.17 1005.26,59.11 1005.60,59.06 1005.93,59.00 1006.27,58.95 1006.61,58.89 1006.94,58.84 1007.28,58.78 1007.62,58.73 1007.95,58.67 1008.29,58.62 1008.63,58.57 1008.96,58.51 1009.30,58.46 1009.64,58.41 1009.97,58.35 1010.31,58.30 1010.65,58.25 1010.98,58.20 1011.32,58.14 1011.66,58.09 1011.99,58.04 1012.33,57.99 1012.67,57.94 1013.00,57.89 1013.34,57.83 1013.68,57.78 1014.01,57.73 1014.35,57.68 1014.69,57.63 1015.02,57.58 1015.36,57.53 1015.70,57.48 1016.03,57.43 1016.37,57.38 1016.71,57.33 1017.04,57.28 1017.38,57.24 1017.72,57.19 1018.05,57.14 1018.39,57.09 1018.73,57.04 1019.06,56.99 1019.40,56.94 1019.74,56.90 1020.07,56.85 1020.41,56.80 1020.75,56.75 1021.08,56.71 1021.42,56.66 1021.76,56.61 1022.09,56.57 1022.43,56.52 1022.77,56.47 1023.10,56.43 1023.44,56.38 1023.78,56.33 1024.11,56.29 1024.45,56.24 1024.79,56.20 1025.12,56.15 1025.46,56.11 1025.80,56.06 1026.13,56.02 1026.47,55.97 1026.81,55.93 1027.14,55.88 1027.48,55.84 1027.82,55.79 1028.15,55.75 1028.49,55.70 1028.83,55.66 1029.16,55.62 1029.50,55.57 1029.84,55.53 1030.17,55.49 1030.51,55.44 1030.85,55.40 1031.18,55.36 1031.52,55.31 1031.86,55.27 1032.19,55.23 1032.53,55.18 1032.87,55.14 1033.20,55.10 1033.54,55.06 1033.88,55.02 1034.21,54.97 1034.55,54.93 1034.89,54.89 1035.22,54.85 1035.56,54.81 1035.90,54.77 1036.23,54.72 1036.57,54.68 1036.91,54.64 1037.24,54.60 1037.58,54.56 1037.92,54.52 1038.25,54.48 1038.59,54.44 1038.93,54.40 1039.26,54.36 1039.60,54.32 1039.94,54.28 1040.27,54.24 1040.61,54.20 1040.95,54.16 1041.28,54.12 1041.62,54.08 1041.96,54.04 1042.29,54.00 1042.63,53.96 1042.97,53.92 1043.30,53.88 1043.64,53.84 1043.98,53.81 1044.31,53.77 1044.65,53.73 1044.99,53.69 1045.32,53.65 1045.66,53.61 1046.00,53.57 1046.33,53.54 1046.67,53.50 1047.01,53.46 1047.34,53.42 1047.68,53.38 1048.02,53.35 1048.35,53.31 1048.69,53.27 1049.03,53.23 1049.36,53.20 1049.70,53.16 1050.04,53.12 1050.37,53.08 1050.71,53.05 1051.05,53.01 1051.38,52.97 1051.72,52.94 1052.06,52.90 1052.39,52.86 1052.73,52.83 1053.07,52.79 1053.40,52.75 1053.74,52.72 1054.08,52.68 1054.41,52.64 1054.75,52.61 1055.09,52.57 1055.42,52.53 1055.76,52.50 1056.10,52.46 1056.43,52.43 1056.77,52.39 1057.11,52.35 1057.44,52.32 1057.78,52.28 1058.12,52.25 1058.45,52.21 1058.79,52.17 1059.13,52.14 1059.46,52.10 1059.80,52.07 1060.14,52.03 1060.47,52.00 1060.81,51.96 1061.15,51.93 1061.48,51.89 1061.82,51.86 1062.16,51.82 1062.49,51.79 1062.83,51.75 1063.17,51.72 1063.50,51.68 1063.84,51.65 1064.18,51.61 1064.51,51.58 1064.85,51.54 1065.19,51.51 1065.52,51.47 1065.86,51.44 1066.20,51.40 1066.53,51.37 1066.87,51.33 1067.21,51.30 1067.54,51.26 1067.88,51.23 1068.22,51.19 1068.55,51.16 1068.89,51.13 1069.23,51.09 1069.56,51.06 1069.90,51.02 1070.24,50.99 1070.57,50.95 1070.91,50.92 1071.25,50.89 1071.58,50.85 1071.92,50.82 1072.26,50.78 1072.59,50.75 1072.93,50.71 1073.27,50.68 1073.60,50.65 1073.94,50.61 1074.28,50.58 1074.61,50.54 1074.95,50.51 1075.29,50.48 1075.62,50.44 1075.96,50.41 1076.30,50.37 1076.63,50.34 1076.97,50.31 1077.31,50.27 1077.64,50.24 1077.98,50.20 1078.32,50.17 1078.65,50.14 1078.99,50.10 1079.33,50.07 1079.66,50.03 1080.00,50.00" fill="none" stroke="#004488" stroke-width="1.2"/>
<text x="75" y="54.0" class="title">theta(x) [deg]</text>
<text x="10" y="54.0">min 0.000</text>
<text x="10" y="70.0">max 0.100</text>
<rect x="70" y="860.0" width="1010" height="800.0" fill="none" stroke="#ccc"/>
<polyline points="70.00,1650.00 70.34,1650.00 70.67,1650.00 71.01,1650.00 71.35,1650.00 71.68,1650.00 72.02,1650.00 72.36,1650.00 72.69,1650.00 73.03,1650.00 73.37,1650.00 73.70,1650.00 74.04,1650.00 74.38,1650.00 74.71,1650.00 75.05,1650.00 75.39,1650.00 75.72,1650.00 76.06,1650.00 76.40,1650.00 76.73,1650.00 77.07,1650.00 77.41,1650.00 77.74,1650.00 78.08,1650.00 78.42,1650.00 78.75,1650.00 79.09,1650.00 79.43,1650.00 79.76,1650.00 80.10,1650.00 80.44,1650.00 80.77,1650.00 81.11,1650.00 81.45,1650.00 81.78,1650.00 82.12,1650.00 82.46,1650.00 82.79,1650.00 83.13,1650.00 83.47,1650.00 83.80,1650.00 84.14,1650.00 84.48,1650.00 84.81,1650.00 85.15,1650.00 85.49,1650.00 85.82,1650.00 86.16,1650.00 86.50,1650.00 86.83,1650.00 87.17,1650.00 87.51,1650.00 87.84,1650.00 88.18,1650.00 88.52,1650.00 88.85,1650.00 89.19,1650.00 89.53,1650.00 89.86,1650.00 90.20,1650.00 90.54,1650.00 90.87,1650.00 91.21,1650.00 91.55,1650.00 91.88,1650.00 92.22,1650.00 92.56,1650.00 92.89,1650.00 93.23,1650.00 93.57,1650.00 93.90,1650.00 94.24,1650.00 94.58,1650.00 94.91,1650.00 95.25,1650.00 95.59,1650.00 95.92,1650.00 96.26,1650.00 96.60,1650.00 96.93,1650.00 97.27,1650.00 97.61,1650.00 97.94,1650.00 98.28,1650.00 98.62,1650.00 98.95,1650.00 99.29,1650.00 99.63,1650.00 99.96,1650.00 100.30,1650.00 100.64,1650.00 100.97,1650.00 101.31,1650.00 101.65,1650.00 101.98,1650.00 102.32,1650.00 102.66,1650.00 102.99,1650.00 103.33,1650.00 103.67,1650.00 104.00,1650.00 104.34,1650.00 104.68,1650.00 105.01,1650.00 105.35,1650.00 105.69,1650.00 106.02,1650.00 106.36,1649.99 106.70,1649.99 107.03,1649.99 107.37,1649.99 107.71,1649.99 108.04,1649.99 108.38,1649.99 108.72,1649.99 109.05,1649.99 109.39,1649.99 109.73,1649.99 110.06,1649.99 110.40,1649.99 110.74,1649.99 111.07,1649.99 111.41,1649.99 111.75,1649.99 112.08,1649.99 112.42,1649.99 112.76,1649.99 113.09,1649.99 113.43,1649.99 113.77,1649.99 114.10,1649.99 114.44,1649.99 114.78,1649.99 115.11,1649.99 115.45,1649.99 115.79,1649.99 116.12,1649.99 116.46,1649.99 116.80,1649.99 117.13,1649.99 117.47,1649.98 117.81,1649.98 118.14,1649.98 118.48,1649.98 118.82,1649.98 119.15,1649.98 119.49,1649.98 119.83,1649.98 120.16,1649.98 120.50,1649.98 120.84,1649.98 121.17,1649.98 121.51,1649.98 121.85,1649.98 122.18,1649.98 122.52,1649.98 122.86,1649.98 123.19,1649.98 123.53,1649.98 123.87,1649.98 124.20,1649.97 124.54,1649.97 124.88,1649.97 125.21,1649.97 125.55,1649.97 125.89,1649.97 126.22,1649.97 126.56,1649.97 126.90,1649.97 127.23,1649.97 127.57,1649.97 127.91,1649.97 128.24,1649.97 128.58,1649.97 128.92,1649.96 129.25,1649.96 129.59,1649.96 129.93,1649.96 130.26,1649.96 130.60,1649.96 130.94,1649.96 131.27,1649.96 131.61,1649.96 131.95,1649.96 132.28,1649.96 132.62,1649.95 132.96,1649.95 133.29,1649.95 133.63,1649.95 133.97,1649.95 134.30,1649.95 134.64,1649.95 134.98,1649.95 135.31,1649.95 135.65,1649.95 135.99,1649.94 136.32,1649.94 136.66,1649.94 137.00,1649.94 137.33,1649.94 137.67,1649.94 138.01,1649.94 138.34,1649.94 138.68,1649.93 139.02,1649.93 139.35,1649.93 139.69,1649.93 140.03,1649.93 140.36,1649.93 140.70,1649.93 141.04,1649.93 141.37,1649.92 141.71,1649.92 142.05,1649.92 142.38,1649.92 142.72,1649.92 143.06,1649.92 143.39,1649.91 143.73,1649.91 144.07,1649.91 144.40,1649.91 144.74,1649.91 145.08,1649.91 145.41,1649.91 145.75,1649.90 146.09,1649.90 146.42,1649.90 146.76,1649.90 147.10,1649.90 147.43,1649.89 147.77,1649.89 148.11,1649.89 148.44,1649.89 148.78,1649.89 149.12,1649.89 149.45,1649.88 149.79,1649.88 150.13,1649.88 150.46,1649.88 150.80,1649.88 151.14,1649.87 151.47,1649.87 151.81,1649.87 152.15,1649.87 152.48,1649.86 152.82,1649.86 153.16,1649.86 153.49,1649.86 153.83,1649.86 154.17,1649.85 154.50,1649.85 154.84,1649.85 155.18,1649.85 155.51,1649.84 155.85,1649.84 156.19,1649.84 156.52,1649.84 156.86,1649.83 157.20,1649.83 157.53,1649.83 157.87,1649.83 158.21,1649.82 158.54,1649.82 158.88,1649.82 159.22,1649.82 159.55,1649.81 159.89,1649.81 160.23,1649.81 160.56,1649.80 160.90,1649.80 161.24,1649.80 161.57,1649.79 161.91,1649.79 162.25,1649.79 162.58,1649.79 162.92,1649.78 163.26,1649.78 163.59,1649.78 163.93,1649.77 164.27,1649.77 164.60,1649.77 164.94,1649.76 165.28,1649.76 165.61,1649.76 165.95,1649.75 166.29,1649.75 166.62,1649.75 166.96,1649.74 167.30,1649.74 167.63,1649.74 167.97,1649.73 168.31,1649.73 168.64,1649.72 168.98,1649.72 169.32,1649.72 169.65,1649.71 169.99,1649.71 170.33,1649.71 170.66,1649.70 171.00,1649.70 171.34,1649.69 171.67,1649.69 172.01,1649.69 172.35,1649.68 172.68,1649.68 173.02,1649.67 173.36,1649.67 173.69,1649.66 174.03,1649.66 174.37,1649.66 174.70,1649.65 175.04,1649.65 175.38,1649.64 175.71,1649.64 176.05,1649.63 176.39,1649.63 176.72,1649.62 177.06,1649.62 177.40,1649.61 177.73,1649.61 178.07,1649.60 178.41,1649.60 178.74,1649.59 179.08,1649.59 179.42,1649.58 179.75,1649.58 180.09,1649.57 180.43,1649.57 180.76,1649.56 181.10,1649.56 181.44,1649.55 181.77,1649.55 182.11,1649.54 182.45,1649.54 182.78,1649.53 183.12,1649.53 183.46,1649.52 183.79,1649.51 184.13,1649.51 184.47,1649.50 184.80,1649.50 185.14,1649.49 185.48,1649.49 185.81,1649.48 186.15,1649.47 186.49,1649.47 186.82,1649.46 187.16,1649.45 187.50,1649.45 187.83,1649.44 188.17,1649.44 188.51,1649.43 188.84,1649.42 189.18,1649.42 189.52,1649.41 189.85,1649.40 190.19,1649.40 190.53,1649.39 190.86,1649.38 191.20,1649.38 191.54,1649.37 191.87,1649.36 192.21,1649.36 192.55,1649.35 192.88,1649.34 193.22,1649.33 193.56,1649.33 193.89,1649.32 194.23,1649.31 194.57,1649.30 194.90,1649.30 195.24,1649.29 195.58,1649.28 195.91,1649.27 196.25,1649.27 196.59,1649.26 196.92,1649.25 197.26,1649.24 197.60,1649.24 197.93,1649.23 198.27,1649.22 198.61,1649.21 198.94,1649.20 199.28,1649.19 199.62,1649.19 199.95,1649.18 200.29,1649.17 200.63,1649.16 200.96,1649.15 201.30,1649.14 201.64,1649.13 201.97,1649.13 202.31,1649.12 202.65,1649.11 202.98,1649.10 203.32,1649.09 203.66,1649.08 203.99,1649.07 204.33,1649.06 204.67,1649.05 205.00,1649.04 205.34,1649.03 205.68,1649.02 206.01,1649.02 206.35,1649.01 206.69,1649.00 207.02,1648.99 207.36,1648.98 207.70,1648.97 208.03,1648.96 208.37,1648.95 208.71,1648.94 209.04,1648.93 209.38,1648.92 209.72,1648.90 210.05,1648.89 210.39,1648.88 210.73,1648.87 211.06,1648.86 211.40,1648.85 211.74,1648.84 212.07,1648.83 212.41,1648.82 212.75,1648.81 213.08,1648.80 213.42,1648.79 213.76,1648.77 214.09,1648.76 214.43,1648.75 214.77,1648.74 215.10,1648.73 215.44,1648.72 215.78,1648.70 216.11,1648.69 216.45,1648.68 216.79,1648.67 217.12,1648.66 217.46,1648.64 217.80,1648.63 218.13,1648.62 218.47,1648.61 218.81,1648.59 219.14,1648.58 219.48,1648.57 219.82,1648.56 220.15,1648.54 220.49,1648.53 220.83,1648.52 221.16,1648.50 221.50,1648.49 221.84,1648.48 222.17,1648.46 222.51,1648.45 222.85,1648.44 223.18,1648.42 223.52,1648.41 223.86,1648.40 224.19,1648.38 224.53,1648.37 224.87,1648.35 225.20,1648.34 225.54,1648.33 225.88,1648.31 226.21,1648.30 226.55,1648.28 226.89,1648.27 227.22,1648.25 227.56,1648.24 227.90,1648.22 228.23,1648.21 228.57,1648.19 228.91,1648.18 229.24,1648.16 229.58,1648.15 229.92,1648.13 230.25,1648.12 230.59,1648.10 230.93,1648.09 231.26,1648.07 231.60,1648.05 231.94,1648.04 232.27,1648.02 232.61,1648.00 232.95,1647.99 233.28,1647.97 233.62,1647.96 233.96,1647.94 234.29,1647.92 234.63,1647.91 234.97,1647.89 235.30,1647.87 235.64,1647.85 235.98,1647.84 236.31,1647.82 236.65,1647.80 236.99,1647.78 237.32,1647.77 237.66,1647.75 238.00,1647.73 238.33,1647.71 238.67,1647.69 239.01,1647.68 239.34,1647.66 239.68,1647.64 240.02,1647.62 240.35,1647.60 240.69,1647.58 241.03,1647.57 241.36,1647.55 241.70,1647.53 242.04,1647.51 242.37,1647.49 242.71,1647.47 243.05,1647.45 243.38,1647.43 243.72,1647.41 244.06,1647.39 244.39,1647.37 244.73,1647.35 245.07,1647.33 245.40,1647.31 245.74,1647.29 246.08,1647.27 246.41,1647.25 246.75,1647.23 247.09,1647.21 247.42,1647.19 247.76,1647.16 248.10,1647.14 248.43,1647.12 248.77,1647.10 249.11,1647.08 249.44,1647.06 249.78,1647.04 250.12,1647.01 250.45,1646.99 250.79,1646.97 251.13,1646.95 251.46,1646.92 251.80,1646.90 252.14,1646.88 252.47,1646.86 252.81,1646.83 253.15,1646.81 253.48,1646.79 253.82,1646.76 254.16,1646.74 254.49,1646.72 254.83,1646.69 255.17,1646.67 255.50,1646.65 255.84,1646.62 256.18,1646.60 256.51,1646.57 256.85,1646.55 257.19,1646.52 257.52,1646.50 257.86,1646.47 258.20,1646.45 258.53,1646.42 258.87,1646.40 259.21,1646.37 259.54,1646.35 259.88,1646.32 260.22,1646.30 260.55,1646.27 260.89,1646.25 261.23,1646.22 261.56,1646.19 261.90,1646.17 262.24,1646.14 262.57,1646.11 262.91,1646.09 263.25,1646.06 263.58,1646.03 263.92,1646.01 264.26,1645.98 264.59,1645.95 264.93,1645.92 265.27,1645.90 265.60,1645.87 265.94,1645.84 266.28,1645.81 266.61,1645.78 266.95,1645.76 267.29,1645.73 267.62,1645.70 267.96,1645.67 268.30,1645.64 268.63,1645.61 268.97,1645.58 269.31,1645.55 269.64,1645.52 269.98,1645.49 270.32,1645.46 270.65,1645.43 270.99,1645.40 271.33,1645.37 271.66,1645.34 272.00,1645.31 272.34,1645.28 272.67,1645.25 273.01,1645.22 273.35,1645.19 273.68,1645.16 274.02,1645.13 274.36,1645.09 274.69,1645.06 275.03,1645.03 275.37,1645.00 275.70,1644.97 276.04,1644.93 276.38,1644.90 276.71,1644.87 277.05,1644.84 277.39,1644.80 277.72,1644.77 278.06,1644.74 278.40,1644.70 278.73,1644.67 279.07,1644.64 279.41,1644.60 279.74,1644.57 280.08,1644.54 280.42,1644.50 280.75,1644.47 281.09,1644.43 281.43,1644.40 281.76,1644.36 282.10,1644.33 282.44,1644.29 282.77,1644.26 283.11,1644.22 283.45,1644.19 283.78,1644.15 284.12,1644.11 284.46,1644.08 284.79,1644.04 285.13,1644.01 285.47,1643.97 285.80,1643.93 286.14,1643.89 286.48,1643.86 286.81,1643.82 287.15,1643.78 287.49,1643.75 287.82,1643.71 288.16,1643.67 288.50,1643.63 288.83,1643.59 289.17,1643.56 289.51,1643.52 289.84,1643.48 290.18,1643.44 290.52,1643.40 290.85,1643.36 291.19,1643.32 291.53,1643.28 291.86,1643.24 292.20,1643.20 292.54,1643.16 292.87,1643.12 293.21,1643.08 293.55,1643.04 293.88,1643.00 294.22,1642.96 294.56,1642.92 294.89,1642.88 295.23,1642.84 295.57,1642.79 295.90,1642.75 296.24,1642.71 296.58,1642.67 296.91,1642.63 297.25,1642.58 297.59,1642.54 297.92,1642.50 298.26,1642.46 298.60,1642.41 298.93,1642.37 299.27,1642.33 299.61,1642.28 299.94,1642.24 300.28,1642.20 300.62,1642.15 300.95,1642.11 301.29,1642.06 301.63,1642.02 301.96,1641.97 302.30,1641.93 302.64,1641.88 302.97,1641.84 303.31,1641.79 303.65,1641.75 303.98,1641.70 304.32,1641.66 304.66,1641.61 304.99,1641.56 305.33,1641.52 305.67,1641.47 306.00,1641.42 306.34,1641.38 306.68,1641.33 307.01,1641.28 307.35,1641.23 307.69,1641.18 308.02,1641.14 308.36,1641.09 308.70,1641.04 309.03,1640.99 309.37,1640.94 309.71,1640.89 310.04,1640.84 310.38,1640.80 310.72,1640.75 311.05,1640.70 311.39,1640.65 311.73,1640.60 312.06,1640.55 312.40,1640.50 312.74,1640.45 313.07,1640.39 313.41,1640.34 313.75,1640.29 314.08,1640.24 314.42,1640.19 314.76,1640.14 315.09,1640.09 315.43,1640.03 315.77,1639.98 316.10,1639.93 316.44,1639.88 316.78,1639.82 317.11,1639.77 317.45,1639.72 317.79,1639.66 318.12,1639.61 318.46,1639.56 318.80,1639.50 319.13,1639.45 319.47,1639.39 319.81,1639.34 320.14,1639.28 320.48,1639.23 320.82,1639.17 321.15,1639.12 321.49,1639.06 321.83,1639.01 322.16,1638.95 322.50,1638.90 322.84,1638.84 323.17,1638.78 323.51,1638.73 323.85,1638.67 324.18,1638.61 324.52,1638.56 324.86,1638.50 325.19,1638.44 325.53,1638.38 325.87,1638.32 326.20,1638.27 326.54,1638.21 326.88,1638.15 327.21,1638.09 327.55,1638.03 327.89,1637.97 328.22,1637.91 328.56,1637.85 328.90,1637.79 329.23,1637.73 329.57,1637.67 329.91,1637.61 330.24,1637.55 330.58,1637.49 330.92,1637.43 331.25,1637.37 331.59,1637.31 331.93,1637.24 332.26,1637.18 332.60,1637.12 332.94,1637.06 333.27,1637.00 333.61,1636.93 333.95,1636.87 334.28,1636.81 334.62,1636.74 334.96,1636.68 335.29,1636.62 335.63,1636.55 335.97,1636.49 336.30,1636.42 336.64,1636.36 336.98,1636.29 337.31,1636.23 337.65,1636.16 337.99,1636.10 338.32,1636.03 338.66,1635.97 339.00,1635.90 339.33,1635.84 339.67,1635.77 340.01,1635.70 340.34,1635.64 340.68,1635.57 341.02,1635.50 341.35,1635.43 341.69,1635.37 342.03,1635.30 342.36,1635.23 342.70,1635.16 343.04,1635.09 343.37,1635.02 343.71,1634.95 344.05,1634.89 344.38,1634.82 344.72,1634.75 345.06,1634.68 345.39,1634.61 345.73,1634.54 346.07,1634.47 346.40,1634.39 346.74,1634.32 347.08,1634.25 347.41,1634.18 347.75,1634.11 348.09,1634.04 348.42,1633.97 348.76,1633.89 349.10,1633.82 349.43,1633.75 349.77,1633.68 350.11,1633.60 350.44,1633.53 350.78,1633.46 351.12,1633.38 351.45,1633.31 351.79,1633.23 352.13,1633.16 352.46,1633.08 352.80,1633.01 353.14,1632.93 353.47,1632.86 353.81,1632.78 354.15,1632.71 354.48,1632.63 354.82,1632.56 355.16,1632.48 355.49,1632.40 355.83,1632.33 356.17,1632.25 356.50,1632.17 356.84,1632.09 357.18,1632.02 357.51,1631.94 357.85,1631.86 358.19,1631.78 358.52,1631.70 358.86,1631.62 359.20,1631.54 359.53,1631.47 359.87,1631.39 360.21,1631.31 360.54,1631.23 360.88,1631.15 361.22,1631.07 361.55,1630.98 361.89,1630.90 362.23,1630.82 362.56,1630.74 362.90,1630.66 363.24,1630.58 363.57,1630.50 363.91,1630.41 364.25,1630.33 364.58,1630.25 364.92,1630.17 365.26,1630.08 365.59,1630.00 365.93,1629.91 366.27,1629.83 366.60,1629.75 366.94,1629.66 367.28,1629.58 367.61,1629.49 367.95,1629.41 368.29,1629.32 368.62,1629.24 368.96,1629.15 369.30,1629.07 369.63,1628.98 369.97,1628.89 370.31,1628.81 370.64,1628.72 370.98,1628.63 371.32,1628.54 371.65,1628.46 371.99,1628.37 372.33,1628.28 372.66,1628.19 373.00,1628.10 373.34,1628.01 373.67,1627.93 374.01,1627.84 374.35,1627.75 374.68,1627.66 375.02,1627.57 375.36,1627.48 375.69,1627.39 376.03,1627.30 376.37,1627.20 376.70,1627.11 377.04,1627.02 377.38,1626.93 377.71,1626.84 378.05,1626.75 378.39,1626.65 378.72,1626.56 379.06,1626.47 379.40,1626.38 379.73,1626.28 380.07,1626.19 380.41,1626.09 380.74,1626.00 381.08,1625.91 381.42,1625.81 381.75,1625.72 382.09,1625.62 382.43,1625.53 382.76,1625.43 383.10,1625.34 383.44,1625.24 383.77,1625.14 384.11,1625.05 384.45,1624.95 384.78,1624.85 385.12,1624.76 385.46,1624.66 385.79,1624.56 386.13,1624.46 386.47,1624.36 386.80,1624.27 387.14,1624.17 387.48,1624.07 387.81,1623.97 388.15,1623.87 388.49,1623.77 388.82,1623.67 389.16,1623.57 389.50,1623.47 389.83,1623.37 390.17,1623.27 390.51,1623.17 390.84,1623.06 391.18,1622.96 391.52,1622.86 391.85,1622.76 392.19,1622.66 392.53,1622.55 392.86,1622.45 393.20,1622.35 393.54,1622.24 393.87,1622.14 394.21,1622.04 394.55,1621.93 394.88,1621.83 395.22,1621.72 395.56,1621.62 395.89,1621.51 396.23,1621.41 396.57,1621.30 396.90,1621.20 397.24,1621.09 397.58,1620.98 397.91,1620.88 398.25,1620.77 398.59,1620.66 398.92,1620.56 399.26,1620.45 399.60,1620.34 399.93,1620.23 400.27,1620.12 400.61,1620.02 400.94,1619.91 401.28,1619.80 401.62,1619.69 401.95,1619.58 402.29,1619.47 402.63,1619.36 402.96,1619.25 403.30,1619.14 403.64,1619.03 403.97,1618.91 404.31,1618.80 404.65,1618.69 404.98,1618.58 405.32,1618.47 405.66,1618.35 405.99,1618.24 406.33,1618.13 406.67,1618.02 407.00,1617.90 407.34,1617.79 407.68,1617.67 408.01,1617.56 408.35,1617.44 408.69,1617.33 409.02,1617.21 409.36,1617.10 409.70,1616.98 410.03,1616.87 410.37,1616.75 410.71,1616.63 411.04,1616.52 411.38,1616.40 411.72,1616.28 412.05,1616.17 412.39,1616.05 412.73,1615.93 413.06,1615.81 413.40,1615.69 413.74,1615.57 414.07,1615.45 414.41,1615.33 414.75,1615.21 415.08,1615.09 415.42,1614.97 415.76,1614.85 416.09,1614.73 416.43,1614.61 416.77,1614.49 417.10,1614.36 417.44,1614.24 417.78,1614.12 418.11,1614.00 418.45,1613.87 418.79,1613.75 419.12,1613.63 419.46,1613.50 419.80,1613.38 420.13,1613.25 420.47,1613.13 420.81,1613.00 421.14,1612.88 421.48,1612.75 421.82,1612.63 422.15,1612.50 422.49,1612.37 422.83,1612.25 423.16,1612.12 423.50,1611.99 423.84,1611.87 424.17,1611.74 424.51,1611.61 424.85,1611.48 425.18,1611.35 425.52,1611.22 425.86,1611.09 426.19,1610.96 426.53,1610.83 426.87,1610.70 427.20,1610.57 427.54,1610.44 427.88,1610.31 428.21,1610.18 428.55,1610.05 428.89,1609.92 429.22,1609.78 429.56,1609.65 429.90,1609.52 430.23,1609.39 430.57,1609.25 430.91,1609.12 431.24,1608.99 431.58,1608.85 431.92,1608.72 432.25,1608.58 432.59,1608.45 432.93,1608.31 433.26,1608.18 433.60,1608.04 433.94,1607.90 434.27,1607.77 434.61,1607.63 434.95,1607.49 435.28,1607.36 435.62,1607.22 435.96,1607.08 436.29,1606.94 436.63,1606.80 436.97,1606.66 437.30,1606.53 437.64,1606.39 437.98,1606.25 438.31,1606.11 438.65,1605.97 438.99,1605.83 439.32,1605.68 439.66,1605.54 440.00,1605.40 440.33,1605.26 440.67,1605.12 441.01,1604.98 441.34,1604.83 441.68,1604.69 442.02,1604.55 442.35,1604.40 442.69,1604.26 443.03,1604.12 443.36,1603.97 443.70,1603.83 444.04,1603.68 444.37,1603.54 444.71,1603.39 445.05,1603.25 445.38,1603.10 445.72,1602.95 446.06,1602.81 446.39,1602.66 446.73,1602.51 447.07,1602.37 447.40,1602.22 447.74,1602.07 448.08,1601.92 448.41,1601.77 448.75,1601.62 449.09,1601.48 449.42,1601.33 449.76,1601.18 450.10,1601.03 450.43,1600.88 450.77,1600.72 451.11,1600.57 451.44,1600.42 451.78,1600.27 452.12,1600.12 452.45,1599.97 452.79,1599.81 453.13,1599.66 453.46,1599.51 453.80,1599.36 454.14,1599.20 454.47,1599.05 454.81,1598.89 455.15,1598.74 455.48,1598.59 455.82,1598.43 456.16,1598.27 456.49,1598.12 456.83,1597.96 457.17,1597.81 457.50,1597.65 457.84,1597.49 458.18,1597.34 458.51,1597.18 458.85,1597.02 459.19,1596.86 459.52,1596.71 459.86,1596.55 460.20,1596.39 460.53,1596.23 460.87,1596.07 461.21,1595.91 461.54,1595.75 461.88,1595.59 462.22,1595.43 462.55,1595.27 462.89,1595.11 463.23,1594.94 463.56,1594.78 463.90,1594.62 464.24,1594.46 464.57,1594.30 464.91,1594.13 465.25,1593.97 465.58,1593.81 465.92,1593.64 466.26,1593.48 466.59,1593.31 466.93,1593.15 467.27,1592.98 467.60,1592.82 467.94,1592.65 468.28,1592.49 468.61,1592.32 468.95,1592.15 469.29,1591.99 469.62,1591.82 469.96,1591.65 470.30,1591.49 470.63,1591.32 470.97,1591.15 471.31,1590.98 471.64,1590.81 471.98,1590.64 472.32,1590.47 472.65,1590.30 472.99,1590.13 473.33,1589.96 473.66,1589.79 474.00,1589.62 474.34,1589.45 474.67,1589.28 475.01,1589.11 475.35,1588.93 475.68,1588.76 476.02,1588.59 476.36,1588.42 476.69,1588.24 477.03,1588.07 477.37,1587.90 477.70,1587.72 478.04,1587.55 478.38,1587.37 478.71,1587.20 479.05,1587.02 479.39,1586.85 479.72,1586.67 480.06,1586.49 480.40,1586.32 480.73,1586.14 481.07,1585.96 481.41,1585.79 481.74,1585.61 482.08,1585.43 482.42,1585.25 482.75,1585.07 483.09,1584.89 483.43,1584.71 483.76,1584.54 484.10,1584.36 484.44,1584.18 484.77,1583.99 485.11,1583.81 485.45,1583.63 485.78,1583.45 486.12,1583.27 486.46,1583.09 486.79,1582.91 487.13,1582.72 487.47,1582.54 487.80,1582.36 488.14,1582.17 488.48,1581.99 488.81,1581.81 489.15,1581.62 489.49,1581.44 489.82,1581.25 490.16,1581.07 490.50,1580.88 490.83,1580.70 491.17,1580.51 491.51,1580.32 491.84,1580.14 492.18,1579.95 492.52,1579.76 492.85,1579.57 493.19,1579.39 493.53,1579.20 493.86,1579.01 494.20,1578.82 494.54,1578.63 494.87,1578.44 495.21,1578.25 495.55,1578.06 495.88,1577.87 496.22,1577.68 496.56,1577.49 496.89,1577.30 497.23,1577.11 497.57,1576.92 497.90,1576.72 498.24,1576.53 498.58,1576.34 498.91,1576.15 499.25,1575.95 499.59,1575.76 499.92,1575.56 500.26,1575.37 500.60,1575.18 500.93,1574.98 501.27,1574.79 501.61,1574.59 501.94,1574.39 502.28,1574.20 502.62,1574.00 502.95,1573.80 503.29,1573.61 503.63,1573.41 503.96,1573.21 504.30,1573.02 504.64,1572.82 504.97,1572.62 505.31,1572.42 505.65,1572.22 505.98,1572.02 506.32,1571.82 506.66,1571.62 506.99,1571.42 507.33,1571.22 507.67,1571.02 508.00,1570.82 508.34,1570.62 508.68,1570.42 509.01,1570.21 509.35,1570.01 509.69,1569.81 510.02,1569.60 510.36,1569.40 510.70,1569.20 511.03,1568.99 511.37,1568.79 511.71,1568.59 512.04,1568.38 512.38,1568.18 512.72,1567.97 513.05,1567.76 513.39,1567.56 513.73,1567.35 514.06,1567.14 514.40,1566.94 514.74,1566.73 515.07,1566.52 515.41,1566.32 515.75,1566.11 516.08,1565.90 516.42,1565.69 516.76,1565.48 517.09,1565.27 517.43,1565.06 517.77,1564.85 518.10,1564.64 518.44,1564.43 518.78,1564.22 519.11,1564.01 519.45,1563.80 519.79,1563.58 520.12,1563.37 520.46,1563.16 520.80,1562.95 521.13,1562.73 521.47,1562.52 521.81,1562.31 522.14,1562.09 522.48,1561.88 522.82,1561.66 523.15,1561.45 523.49,1561.23 523.83,1561.02 524.16,1560.80 524.50,1560.59 524.84,1560.37 525.17,1560.15 525.51,1559.94 525.85,1559.72 526.18,1559.50 526.52,1559.28 526.86,1559.07 527.19,1558.85 527.53,1558.63 527.87,1558.41 528.20,1558.19 528.54,1557.97 528.88,1557.75 529.21,1557.53 529.55,1557.31 529.89,1557.09 530.22,1556.87 530.56,1556.64 530.90,1556.42 531.23,1556.20 531.57,1555.98 531.91,1555.75 532.24,1555.53 532.58,1555.31 532.92,1555.08 533.25,1554.86 533.59,1554.64 533.93,1554.41 534.26,1554.19 534.60,1553.96 534.94,1553.74 535.27,1553.51 535.61,1553.28 535.95,1553.06 536.28,1552.83 536.62,1552.60 536.96,1552.38 537.29,1552.15 537.63,1551.92 537.97,1551.69 538.30,1551.46 538.64,1551.23 538.98,1551.00 539.31,1550.77 539.65,1550.54 539.99,1550.31 540.32,1550.08 540.66,1549.85 541.00,1549.62 541.33,1549.39 541.67,1549.16 542.01,1548.93 542.34,1548.69 542.68,1548.46 543.02,1548.23 543.35,1548.00 543.69,1547.76 544.03,1547.53 544.36,1547.29 544.70,1547.06 545.04,1546.82 545.37,1546.59 545.71,1546.35 546.05,1546.12 546.38,1545.88 546.72,1545.65 547.06,1545.41 547.39,1545.17 547.73,1544.93 548.07,1544.70 548.40,1544.46 548.74,1544.22 549.08,1543.98 549.41,1543.74 549.75,1543.50 550.09,1543.27 550.42,1543.03 550.76,1542.79 551.10,1542.55 551.43,1542.30 551.77,1542.06 552.11,1541.82 552.44,1541.58 552.78,1541.34 553.12,1541.10 553.45,1540.85 553.79,1540.61 554.13,1540.37 554.46,1540.12 554.80,1539.88 555.14,1539.64 555.47,1539.39 555.81,1539.15 556.15,1538.90 556.48,1538.66 556.82,1538.41 557.16,1538.17 557.49,1537.92 557.83,1537.67 558.17,1537.43 558.50,1537.18 558.84,1536.93 559.18,1536.68 559.51,1536.44 559.85,1536.19 560.19,1535.94 560.52,1535.69 560.86,1535.44 561.20,1535.19 561.53,1534.94 561.87,1534.69 562.21,1534.44 562.54,1534.19 562.88,1533.94 563.22,1533.69 563.55,1533.43 563.89,1533.18 564.23,1532.93 564.56,1532.68 564.90,1532.42 565.24,1532.17 565.57,1531.92 565.91,1531.66 566.25,1531.41 566.58,1531.15 566.92,1530.90 567.26,1530.64 567.59,1530.39 567.93,1530.13 568.27,1529.88 568.60,1529.62 568.94,1529.36 569.28,1529.11 569.61,1528.85 569.95,1528.59 570.29,1528.33 570.62,1528.08 570.96,1527.82 571.30,1527.56 571.63,1527.30 571.97,1527.04 572.31,1526.78 572.64,1526.52 572.98,1526.26 573.32,1526.00 573.65,1525.74 573.99,1525.48 574.33,1525.21 574.66,1524.95 575.00,1524.69 575.34,1524.43 575.67,1524.16 576.01,1523.90 576.35,1523.64 576.68,1523.37 577.02,1523.11 577.36,1522.84 577.69,1522.58 578.03,1522.31 578.37,1522.05 578.70,1521.78 579.04,1521.52 579.38,1521.25 579.71,1520.98 580.05,1520.72 580.39,1520.45 580.72,1520.18 581.06,1519.92 581.40,1519.65 581.73,1519.38 582.07,1519.11 582.41,1518.84 582.74,1518.57 583.08,1518.30 583.42,1518.03 583.75,1517.76 584.09,1517.49 584.43,1517.22 584.76,1516.95 585.10,1516.68 585.44,1516.40 585.77,1516.13 586.11,1515.86 586.45,1515.59 586.78,1515.31 587.12,1515.04 587.46,1514.77 587.79,1514.49 588.13,1514.22 588.47,1513.94 588.80,1513.67 589.14,1513.39 589.48,1513.12 589.81,1512.84 590.15,1512.57 590.49,1512.29 590.82,1512.01 591.16,1511.73 591.50,1511.46 591.83,1511.18 592.17,1510.90 592.51,1510.62 592.84,1510.34 593.18,1510.06 593.52,1509.79 593.85,1509.51 594.19,1509.23 594.53,1508.95 594.86,1508.67 595.20,1508.38 595.54,1508.10 595.87,1507.82 596.21,1507.54 596.55,1507.26 596.88,1506.98 597.22,1506.69 597.56,1506.41 597.89,1506.13 598.23,1505.84 598.57,1505.56 598.90,1505.27 599.24,1504.99 599.58,1504.70 599.91,1504.42 600.25,1504.13 600.59,1503.85 600.92,1503.56 601.26,1503.28 601.60,1502.99 601.93,1502.70 602.27,1502.41 602.61,1502.13 602.94,1501.84 603.28,1501.55 603.62,1501.26 603.95,1500.97 604.29,1500.68 604.63,1500.39 604.96,1500.10 605.30,1499.81 605.64,1499.52 605.97,1499.23 606.31,1498.94 606.65,1498.65 606.98,1498.36 607.32,1498.07 607.66,1497.77 607.99,1497.48 608.33,1497.19 608.67,1496.89 609.00,1496.60 609.34,1496.31 609.68,1496.01 610.01,1495.72 610.35,1495.42 610.69,1495.13 611.02,1494.83 611.36,1494.54 611.70,1494.24 612.03,1493.95 612.37,1493.65 612.71,1493.35 613.04,1493.05 613.38,1492.76 613.72,1492.46 614.05,1492.16 614.39,1491.86 614.73,1491.56 615.06,1491.26 615.40,1490.96 615.74,1490.67 616.07,1490.36 616.41,1490.06 616.75,1489.76 617.08,1489.46 617.42,1489.16 617.76,1488.86 618.09,1488.56 618.43,1488.26 618.77,1487.95 619.10,1487.65 619.44,1487.35 619.78,1487.04 620.11,1486.74 620.45,1486.44 620.79,1486.13 621.12,1485.83 621.46,1485.52 621.80,1485.22 622.13,1484.91 622.47,1484.61 622.81,1484.30 623.14,1483.99 623.48,1483.69 623.82,1483.38 624.15,1483.07 624.49,1482.76 624.83,1482.46 625.16,1482.15 625.50,1481.84 625.84,1481.53 626.17,1481.22 626.51,1480.91 626.85,1480.60 627.18,1480.29 627.52,1479.98 627.86,1479.67 628.19,1479.36 628.53,1479.05 628.87,1478.73 629.20,1478.42 629.54,1478.11 629.88,1477.80 630.21,1477.48 630.55,1477.17 630.89,1476.86 631.22,1476.54 631.56,1476.23 631.90,1475.92 632.23,1475.60 632.57,1475.29 632.91,1474.97 633.24,1474.65 633.58,1474.34 633.92,1474.02 634.25,1473.71 634.59,1473.39 634.93,1473.07 635.26,1472.75 635.60,1472.44 635.94,1472.12 636.27,1471.80 636.61,1471.48 636.95,1471.16 637.28,1470.84 637.62,1470.52 637.96,1470.20 638.29,1469.88 638.63,1469.56 638.97,1469.24 639.30,1468.92 639.64,1468.60 639.98,1468.28 640.31,1467.95 640.65,1467.63 640.99,1467.31 641.32,1466.98 641.66,1466.66 642.00,1466.34 642.33,1466.01 642.67,1465.69 643.01,1465.36 643.34,1465.04 643.68,1464.71 644.02,1464.39 644.35,1464.06 644.69,1463.74 645.03,1463.41 645.36,1463.08 645.70,1462.76 646.04,1462.43 646.37,1462.10 646.71,1461.77 647.05,1461.45 647.38,1461.12 647.72,1460.79 648.06,1460.46 648.39,1460.13 648.73,1459.80 649.07,1459.47 649.40,1459.14 649.74,1458.81 650.08,1458.48 650.41,1458.15 650.75,1457.81 651.09,1457.48 651.42,1457.15 651.76,1456.82 652.10,1456.49 652.43,1456.15 652.77,1455.82 653.11,1455.49 653.44,1455.15 653.78,1454.82 654.12,1454.48 654.45,1454.15 654.79,1453.81 655.13,1453.48 655.46,1453.14 655.80,1452.80 656.14,1452.47 656.47,1452.13 656.81,1451.79 657.15,1451.46 657.48,1451.12 657.82,1450.78 658.16,1450.44 658.49,1450.11 658.83,1449.77 659.17,1449.43 659.50,1449.09 659.84,1448.75 660.18,1448.41 660.51,1448.07 660.85,1447.73 661.19,1447.39 661.52,1447.04 661.86,1446.70 662.20,1446.36 662.53,1446.02 662.87,1445.68 663.21,1445.33 663.54,1444.99 663.88,1444.65 664.22,1444.30 664.55,1443.96 664.89,1443.62 665.23,1443.27 665.56,1442.93 665.90,1442.58 666.24,1442.24 666.57,1441.89 666.91,1441.54 667.25,1441.20 667.58,1440.85 667.92,1440.50 668.26,1440.16 668.59,1439.81 668.93,1439.46 669.27,1439.11 669.60,1438.77 669.94,1438.42 670.28,1438.07 670.61,1437.72 670.95,1437.37 671.29,1437.02 671.62,1436.67 671.96,1436.32 672.30,1435.97 672.63,1435.62 672.97,1435.27 673.31,1434.91 673.64,1434.56 673.98,1434.21 674.32,1433.86 674.65,1433.51 674.99,1433.15 675.33,1432.80 675.66,1432.45 676.00,1432.09 676.34,1431.74 676.67,1431.38 677.01,1431.03 677.35,1430.67 677.68,1430.32 678.02,1429.96 678.36,1429.61 678.69,1429.25 679.03,1428.89 679.37,1428.54 679.70,1428.18 680.04,1427.82 680.38,1427.46 680.71,1427.10 681.05,1426.75 681.39,1426.39 681.72,1426.03 682.06,1425.67 682.40,1425.31 682.73,1424.95 683.07,1424.59 683.41,1424.23 683.74,1423.87 684.08,1423.51 684.42,1423.15 684.75,1422.79 685.09,1422.42 685.43,1422.06 685.76,1421.70 686.10,1421.34 686.44,1420.97 686.77,1420.61 687.11,1420.25 687.45,1419.88 687.78,1419.52 688.12,1419.15 688.46,1418.79 688.79,1418.43 689.13,1418.06 689.47,1417.69 689.80,1417.33 690.14,1416.96 690.48,1416.60 690.81,1416.23 691.15,1415.86 691.49,1415.49 691.82,1415.13 692.16,1414.76 692.50,1414.39 692.83,1414.02 693.17,1413.65 693.51,1413.29 693.84,1412.92 694.18,1412.55 694.52,1412.18 694.85,1411.81 695.19,1411.44 695.53,1411.07 695.86,1410.69 696.20,1410.32 696.54,1409.95 696.87,1409.58 697.21,1409.21 697.55,1408.84 697.88,1408.46 698.22,1408.09 698.56,1407.72 698.89,1407.34 699.23,1406.97 699.57,1406.60 699.90,1406.22 700.24,1405.85 700.58,1405.47 700.91,1405.10 701.25,1404.72 701.59,1404.35 701.92,1403.97 702.26,1403.59 702.60,1403.22 702.93,1402.84 703.27,1402.46 703.61,1402.09 703.94,1401.71 704.28,1401.33 704.62,1400.95 704.95,1400.57 705.29,1400.20 705.63,1399.82 705.96,1399.44 706.30,1399.06 706.64,1398.68 706.97,1398.30 707.31,1397.92 707.65,1397.54 707.98,1397.16 708.32,1396.77 708.66,1396.39 708.99,1396.01 709.33,1395.63 709.67,1395.25 710.00,1394.86 710.34,1394.48 710.68,1394.10 711.01,1393.71 711.35,1393.33 711.69,1392.95 712.02,1392.56 712.36,1392.18 712.70,1391.79 713.03,1391.41 713.37,1391.02 713.71,1390.64 714.04,1390.25 714.38,1389.87 714.72,1389.48 715.05,1389.09 715.39,1388.71 715.73,1388.32 716.06,1387.93 716.40,1387.54 716.74,1387.15 717.07,1386.77 717.41,1386.38 717.75,1385.99 718.08,1385.60 718.42,1385.21 718.76,1384.82 719.09,1384.43 719.43,1384.04 719.77,1383.65 720.10,1383.26 720.44,1382.87 720.78,1382.48 721.11,1382.09 721.45,1381.69 721.79,1381.30 722.12,1380.91 722.46,1380.52 722.80,1380.13 723.13,1379.73 723.47,1379.34 723.81,1378.95 724.14,1378.55 724.48,1378.16 724.82,1377.76 725.15,1377.37 725.49,1376.97 725.83,1376.58 726.16,1376.18 726.50,1375.79 726.84,1375.39 727.17,1375.00 727.51,1374.60 727.85,1374.20 728.18,1373.80 728.52,1373.41 728.86,1373.01 729.19,1372.61 729.53,1372.21 729.87,1371.82 730.20,1371.42 730.54,1371.02 730.88,1370.62 731.21,1370.22 731.55,1369.82 731.89,1369.42 732.22,1369.02 732.56,1368.62 732.90,1368.22 733.23,1367.82 733.57,1367.42 733.91,1367.02 734.24,1366.61 734.58,1366.21 734.92,1365.81 735.25,1365.41 735.59,1365.01 735.93,1364.60 736.26,1364.20 736.60,1363.80 736.94,1363.39 737.27,1362.99 737.61,1362.58 737.95,1362.18 738.28,1361.78 738.62,1361.37 738.96,1360.97 739.29,1360.56 739.63,1360.15 739.97,1359.75 740.30,1359.34 740.64,1358.94 740.98,1358.53 741.31,1358.12 741.65,1357.72 741.99,1357.31 742.32,1356.90 742.66,1356.49 743.00,1356.08 743.33,1355.68 743.67,1355.27 744.01,1354.86 744.34,1354.45 744.68,1354.04 745.02,1353.63 745.35,1353.22 745.69,1352.81 746.03,1352.40 746.36,1351.99 746.70,1351.58 747.04,1351.17 747.37,1350.75 747.71,1350.34 748.05,1349.93 748.38,1349.52 748.72,1349.11 749.06,1348.69 749.39,1348.28 749.73,1347.87 750.07,1347.46 750.40,1347.04 750.74,1346.63 751.08,1346.21 751.41,1345.80 751.75,1345.38 752.09,1344.97 752.42,1344.55 752.76,1344.14 753.10,1343.72 753.43,1343.31 753.77,1342.89 754.11,1342.48 754.44,1342.06 754.78,1341.64 755.12,1341.23 755.45,1340.81 755.79,1340.39 756.13,1339.97 756.46,1339.56 756.80,1339.14 757.14,1338.72 757.47,1338.30 757.81,1337.88 758.15,1337.46 758.48,1337.04 758.82,1336.62 759.16,1336.20 759.49,1335.78 759.83,1335.36 760.17,1334.94 760.50,1334.52 760.84,1334.10 761.18,1333.68 761.51,1333.26 761.85,1332.84 762.19,1332.42 762.52,1331.99 762.86,1331.57 763.20,1331.15 763.53,1330.73 763.87,1330.30 764.21,1329.88 764.54,1329.46 764.88,1329.03 765.22,1328.61 765.55,1328.18 765.89,1327.76 766.23,1327.33 766.56,1326.91 766.90,1326.48 767.24,1326.06 767.57,1325.63 767.91,1325.21 768.25,1324.78 768.58,1324.36 768.92,1323.93 769.26,1323.50 769.59,1323.08 769.93,1322.65 770.27,1322.22 770.60,1321.79 770.94,1321.36 771.28,1320.94 771.61,1320.51 771.95,1320.08 772.29,1319.65 772.62,1319.22 772.96,1318.79 773.30,1318.36 773.63,1317.93 773.97,1317.50 774.31,1317.07 774.64,1316.64 774.98,1316.21 775.32,1315.78 775.65,1315.35 775.99,1314.92 776.33,1314.49 776.66,1314.06 777.00,1313.62 777.34,1313.19 777.67,1312.76 778.01,1312.33 778.35,1311.90 778.68,1311.46 779.02,1311.03 779.36,1310.60 779.69,1310.16 780.03,1309.73 780.37,1309.29 780.70,1308.86 781.04,1308.43 781.38,1307.99 781.71,1307.56 782.05,1307.12 782.39,1306.68 782.72,1306.25 783.06,1305.81 783.40,1305.38 783.73,1304.94 784.07,1304.50 784.41,1304.07 784.74,1303.63 785.08,1303.19 785.42,1302.76 785.75,1302.32 786.09,1301.88 786.43,1301.44 786.76,1301.01 787.10,1300.57 787.44,1300.13 787.77,1299.69 788.11,1299.25 788.45,1298.81 788.78,1298.37 789.12,1297.93 789.46,1297.49 789.79,1297.05 790.13,1296.61 790.47,1296.17 790.80,1295.73 791.14,1295.29 791.48,1294.85 791.81,1294.41 792.15,1293.97 792.49,1293.52 792.82,1293.08 793.16,1292.64 793.50,1292.20 793.83,1291.75 794.17,1291.31 794.51,1290.87 794.84,1290.43 795.18,1289.98 795.52,1289.54 795.85,1289.09 796.19,1288.65 796.53,1288.21 796.86,1287.76 797.20,1287.32 797.54,1286.87 797.87,1286.43 798.21,1285.98 798.55,1285.54 798.88,1285.09 799.22,1284.65 799.56,1284.20 799.89,1283.75 800.23,1283.31 800.57,1282.86 800.90,1282.41 801.24,1281.97 801.58,1281.52 801.91,1281.07 802.25,1280.62 802.59,1280.18 802.92,1279.73 803.26,1279.28 803.60,1278.83 803.93,1278.38 804.27,1277.93 804.61,1277.48 804.94,1277.04 805.28,1276.59 805.62,1276.14 805.95,1275.69 806.29,1275.24 806.63,1274.79 806.96,1274.34 807.30,1273.88 807.64,1273.43 807.97,1272.98 808.31,1272.53 808.65,1272.08 808.98,1271.63 809.32,1271.18 809.66,1270.72 809.99,1270.27 810.33,1269.82 810.67,1269.37 811.00,1268.91 811.34,1268.46 811.68,1268.01 812.01,1267.56 812.35,1267.10 812.69,1266.65 813.02,1266.19 813.36,1265.74 813.70,1265.29 814.03,1264.83 814.37,1264.38 814.71,1263.92 815.04,1263.47 815.38,1263.01 815.72,1262.56 816.05,1262.10 816.39,1261.64 816.73,1261.19 817.06,1260.73 817.40,1260.28 817.74,1259.82 818.07,1259.36 818.41,1258.91 818.75,1258.45 819.08,1257.99 819.42,1257.53 819.76,1257.08 820.09,1256.62 820.43,1256.16 820.77,1255.70 821.10,1255.24 821.44,1254.78 821.78,1254.33 822.11,1253.87 822.45,1253.41 822.79,1252.95 823.12,1252.49 823.46,1252.03 823.80,1251.57 824.13,1251.11 824.47,1250.65 824.81,1250.19 825.14,1249.73 825.48,1249.27 825.82,1248.81 826.15,1248.34 826.49,1247.88 826.83,1247.42 827.16,1246.96 827.50,1246.50 827.84,1246.04 828.17,1245.57 828.51,1245.11 828.85,1244.65 829.18,1244.19 829.52,1243.72 829.86,1243.26 830.19,1242.80 830.53,1242.33 830.87,1241.87 831.20,1241.41 831.54,1240.94 831.88,1240.48 832.21,1240.01 832.55,1239.55 832.89,1239.08 833.22,1238.62 833.56,1238.15 833.90,1237.69 834.23,1237.22 834.57,1236.76 834.91,1236.29 835.24,1235.83 835.58,1235.36 835.92,1234.89 836.25,1234.43 836.59,1233.96 836.93,1233.49 837.26,1233.03 837.60,1232.56 837.94,1232.09 838.27,1231.63 838.61,1231.16 838.95,1230.69 839.28,1230.22 839.62,1229.75 839.96,1229.29 840.29,1228.82 840.63,1228.35 840.97,1227.88 841.30,1227.41 841.64,1226.94 841.98,1226.47 842.31,1226.00 842.65,1225.53 842.99,1225.06 843.32,1224.59 843.66,1224.12 844.00,1223.65 844.33,1223.18 844.67,1222.71 845.01,1222.24 845.34,1221.77 845.68,1221.30 846.02,1220.83 846.35,1220.36 846.69,1219.89 847.03,1219.41 847.36,1218.94 847.70,1218.47 848.04,1218.00 848.37,1217.52 848.71,1217.05 849.05,1216.58 849.38,1216.11 849.72,1215.63 850.06,1215.16 850.39,1214.69 850.73,1214.21 851.07,1213.74 851.40,1213.27 851.74,1212.79 852.08,1212.32 852.41,1211.84 852.75,1211.37 853.09,1210.89 853.42,1210.42 853.76,1209.95 854.10,1209.47 854.43,1208.99 854.77,1208.52 855.11,1208.04 855.44,1207.57 855.78,1207.09 856.12,1206.62 856.45,1206.14 856.79,1205.66 857.13,1205.19 857.46,1204.71 857.80,1204.23 858.14,1203.76 858.47,1203.28 858.81,1202.80 859.15,1202.33 859.48,1201.85 859.82,1201.37 860.16,1200.89 860.49,1200.41 860.83,1199.94 861.17,1199.46 861.50,1198.98 861.84,1198.50 862.18,1198.02 862.51,1197.54 862.85,1197.06 863.19,1196.59 863.52,1196.11 863.86,1195.63 864.20,1195.15 864.53,1194.67 864.87,1194.19 865.21,1193.71 865.54,1193.23 865.88,1192.75 866.22,1192.27 866.55,1191.79 866.89,1191.30 867.23,1190.82 867.56,1190.34 867.90,1189.86 868.24,1189.38 868.57,1188.90 868.91,1188.42 869.25,1187.94 869.58,1187.45 869.92,1186.97 870.26,1186.49 870.59,1186.01 870.93,1185.52 871.27,1185.04 871.60,1184.56 871.94,1184.08 872.28,1183.59 872.61,1183.11 872.95,1182.63 873.29,1182.14 873.62,1181.66 873.96,1181.18 874.30,1180.69 874.63,1180.21 874.97,1179.72 875.31,1179.24 875.64,1178.76 875.98,1178.27 876.32,1177.79 876.65,1177.30 876.99,1176.82 877.33,1176.33 877.66,1175.85 878.00,1175.36 878.34,1174.88 878.67,1174.39 879.01,1173.90 879.35,1173.42 879.68,1172.93 880.02,1172.45 880.36,1171.96 880.69,1171.47 881.03,1170.99 881.37,1170.50 881.70,1170.01 882.04,1169.53 882.38,1169.04 882.71,1168.55 883.05,1168.06 883.39,1167.58 883.72,1167.09 884.06,1166.60 884.40,1166.11 884.73,1165.63 885.07,1165.14 885.41,1164.65 885.74,1164.16 886.08,1163.67 886.42,1163.18 886.75,1162.70 887.09,1162.21 887.43,1161.72 887.76,1161.23 888.10,1160.74 888.44,1160.25 888.77,1159.76 889.11,1159.27 889.45,1158.78 889.78,1158.29 890.12,1157.80 890.46,1157.31 890.79,1156.82 891.13,1156.33 891.47,1155.84 891.80,1155.35 892.14,1154.86 892.48,1154.37 892.81,1153.88 893.15,1153.39 893.49,1152.90 893.82,1152.40 894.16,1151.91 894.50,1151.42 894.83,1150.93 895.17,1150.44 895.51,1149.95 895.84,1149.45 896.18,1148.96 896.52,1148.47 896.85,1147.98 897.19,1147.49 897.53,1146.99 897.86,1146.50 898.20,1146.01 898.54,1145.51 898.87,1145.02 899.21,1144.53 899.55,1144.03 899.88,1143.54 900.22,1143.05 900.56,1142.55 900.89,1142.06 901.23,1141.57 901.57,1141.07 901.90,1140.58 902.24,1140.08 902.58,1139.59 902.91,1139.10 903.25,1138.60 903.59,1138.11 903.92,1137.61 904.26,1137.12 904.60,1136.62 904.93,1136.13 905.27,1135.63 905.61,1135.14 905.94,1134.64 906.28,1134.15 906.62,1133.65 906.95,1133.16 907.29,1132.66 907.63,1132.16 907.96,1131.67 908.30,1131.17 908.64,1130.68 908.97,1130.18 909.31,1129.68 909.65,1129.19 909.98,1128.69 910.32,1128.19 910.66,1127.70 910.99,1127.20 911.33,1126.70 911.67,1126.21 912.00,1125.71 912.34,1125.21 912.68,1124.71 913.01,1124.22 913.35,1123.72 913.69,1123.22 914.02,1122.72 914.36,1122.22 914.70,1121.73 915.03,1121.23 915.37,1120.73 915.71,1120.23 916.04,1119.73 916.38,1119.24 916.72,1118.74 917.05,1118.24 917.39,1117.74 917.73,1117.24 918.06,1116.74 918.40,1116.24 918.74,1115.74 919.07,1115.24 919.41,1114.74 919.75,1114.24 920.08,1113.75 920.42,1113.25 920.76,1112.75 921.09,1112.25 921.43,1111.75 921.77,1111.25 922.10,1110.75 922.44,1110.25 922.78,1109.75 923.11,1109.25 923.45,1108.74 923.79,1108.24 924.12,1107.74 924.46,1107.24 924.80,1106.74 925.13,1106.24 925.47,1105.74 925.81,1105.24 926.14,1104.74 926.48,1104.24 926.82,1103.74 927.15,1103.23 927.49,1102.73 927.83,1102.23 928.16,1101.73 928.50,1101.23 928.84,1100.73 929.17,1100.22 929.51,1099.72 929.85,1099.22 930.18,1098.72 930.52,1098.21 930.86,1097.71 931.19,1097.21 931.53,1096.71 931.87,1096.20 932.20,1095.70 932.54,1095.20 932.88,1094.70 933.21,1094.19 933.55,1093.69 933.89,1093.19 934.22,1092.68 934.56,1092.18 934.90,1091.68 935.23,1091.17 935.57,1090.67 935.91,1090.17 936.24,1089.66 936.58,1089.16 936.92,1088.66 937.25,1088.15 937.59,1087.65 937.93,1087.14 938.26,1086.64 938.60,1086.14 938.94,1085.63 939.27,1085.13 939.61,1084.62 939.95,1084.12 940.28,1083.61 940.62,1083.11 940.96,1082.60 941.29,1082.10 941.63,1081.59 941.97,1081.09 942.30,1080.58 942.64,1080.08 942.98,1079.57 943.31,1079.07 943.65,1078.56 943.99,1078.06 944.32,1077.55 944.66,1077.05 945.00,1076.54 945.33,1076.04 945.67,1075.53 946.01,1075.02 946.34,1074.52 946.68,1074.01 947.02,1073.51 947.35,1073.00 947.69,1072.49 948.03,1071.99 948.36,1071.48 948.70,1070.97 949.04,1070.47 949.37,1069.96 949.71,1069.45 950.05,1068.95 950.38,1068.44 950.72,1067.93 951.06,1067.43 951.39,1066.92 951.73,1066.41 952.07,1065.91 952.40,1065.40 952.74,1064.89 953.08,1064.38 953.41,1063.88 953.75,1063.37 954.09,1062.86 954.42,1062.35 954.76,1061.85 955.10,1061.34 955.43,1060.83 955.77,1060.32 956.11,1059.82 956.44,1059.31 956.78,1058.80 957.12,1058.29 957.45,1057.78 957.79,1057.28 958.13,1056.77 958.46,1056.26 958.80,1055.75 959.14,1055.24 959.47,1054.73 959.81,1054.23 960.15,1053.72 960.48,1053.21 960.82,1052.70 961.16,1052.19 961.49,1051.68 961.83,1051.17 962.17,1050.66 962.50,1050.15 962.84,1049.65 963.18,1049.14 963.51,1048.63 963.85,1048.12 964.19,1047.61 964.52,1047.10 964.86,1046.59 965.20,1046.08 965.53,1045.57 965.87,1045.06 966.21,1044.55 966.54,1044.04 966.88,1043.53 967.22,1043.02 967.55,1042.51 967.89,1042.00 968.23,1041.49 968.56,1040.98 968.90,1040.47 969.24,1039.96 969.57,1039.45 969.91,1038.94 970.25,1038.43 970.58,1037.92 970.92,1037.41 971.26,1036.90 971.59,1036.39 971.93,1035.88 972.27,1035.37 972.60,1034.86 972.94,1034.35 973.28,1033.83 973.61,1033.32 973.95,1032.81 974.29,1032.30 974.62,1031.79 974.96,1031.28 975.30,1030.77 975.63,1030.26 975.97,1029.75 976.31,1029.23 976.64,1028.72 976.98,1028.21 977.32,1027.70 977.65,1027.19 977.99,1026.68 978.33,1026.17 978.66,1025.65 979.00,1025.14 979.34,1024.63 979.67,1024.12 980.01,1023.61 980.35,1023.09 980.68,1022.58 981.02,1022.07 981.36,1021.56 981.69,1021.05 982.03,1020.53 982.37,1020.02 982.70,1019.51 983.04,1019.00 983.38,1018.48 983.71,1017.97 984.05,1017.46 984.39,1016.95 984.72,1016.43 985.06,1015.92 985.40,1015.41 985.73,1014.90 986.07,1014.38 986.41,1013.87 986.74,1013.36 987.08,1012.85 987.42,1012.33 987.75,1011.82 988.09,1011.31 988.43,1010.79 988.76,1010.28 989.10,1009.77 989.44,1009.25 989.77,1008.74 990.11,1008.23 990.45,1007.71 990.78,1007.20 991.12,1006.69 991.46,1006.17 991.79,1005.66 992.13,1005.15 992.47,1004.63 992.80,1004.12 993.14,1003.61 993.48,1003.09 993.81,1002.58 994.15,1002.07 994.49,1001.55 994.82,1001.04 995.16,1000.52 995.50,1000.01 995.83,999.50 996.17,998.98 996.51,998.47 996.84,997.95 997.18,997.44 997.52,996.93 997.85,996.41 998.19,995.90 998.53,995.38 998.86,994.87 999.20,994.35 999.54,993.84 999.87,993.32 1000.21,992.81 1000.55,992.30 1000.88,991.78 1001.22,991.27 1001.56,990.75 1001.89,990.24 1002.23,989.72 1002.57,989.21 1002.90,988.69 1003.24,988.18 1003.58,987.66 1003.91,987.15 1004.25,986.63 1004.59,986.12 1004.92,985.60 1005.26,985.09 1005.60,984.57 1005.93,984.06 1006.27,983.54 1006.61,983.03 1006.94,982.51 1007.28,982.00 1007.62,981.48 1007.95,980.97 1008.29,980.45 1008.63,979.94 1008.96,979.42 1009.30,978.90 1009.64,978.39 1009.97,977.87 1010.31,977.36 1010.65,976.84 1010.98,976.33 1011.32,975.81 1011.66,975.29 1011.99,974.78 1012.33,974.26 1012.67,973.75 1013.00,973.23 1013.34,972.72 1013.68,972.20 1014.01,971.68 1014.35,971.17 1014.69,970.65 1015.02,970.13 1015.36,969.62 1015.70,969.10 1016.03,968.59 1016.37,968.07 1016.71,967.55 1017.04,967.04 1017.38,966.52 1017.72,966.00 1018.05,965.49 1018.39,964.97 1018.73,964.46 1019.06,963.94 1019.40,963.42 1019.74,962.91 1020.07,962.39 1020.41,961.87 1020.75,961.36 1021.08,960.84 1021.42,960.32 1021.76,959.81 1022.09,959.29 1022.43,958.77 1022.77,958.26 1023.10,957.74 1023.44,957.22 1023.78,956.70 1024.11,956.19 1024.45,955.67 1024.79,955.15 1025.12,954.64 1025.46,954.12 1025.80,953.60 1026.13,953.09 1026.47,952.57 1026.81,952.05 1027.14,951.53 1027.48,951.02 1027.82,950.50 1028.15,949.98 1028.49,949.46 1028.83,948.95 1029.16,948.43 1029.50,947.91 1029.84,947.39 1030.17,946.88 1030.51,946.36 1030.85,945.84 1031.18,945.32 1031.52,944.81 1031.86,944.29 1032.19,943.77 1032.53,943.25 1032.87,942.74 1033.20,942.22 1033.54,941.70 1033.88,941.18 1034.21,940.66 1034.55,940.15 1034.89,939.63 1035.22,939.11 1035.56,938.59 1035.90,938.07 1036.23,937.56 1036.57,937.04 1036.91,936.52 1037.24,936.00 1037.58,935.48 1037.92,934.97 1038.25,934.45 1038.59,933.93 1038.93,933.41 1039.26,932.89 1039.60,932.38 1039.94,931.86 1040.27,931.34 1040.61,930.82 1040.95,930.30 1041.28,929.78 1041.62,929.26 1041.96,928.75 1042.29,928.23 1042.63,927.71 1042.97,927.19 1043.30,926.67 1043.64,926.15 1043.98,925.63 1044.31,925.12 1044.65,924.60 1044.99,924.08 1045.32,923.56 1045.66,923.04 1046.00,922.52 1046.33,922.00 1046.67,921.48 1047.01,920.97 1047.34,920.45 1047.68,919.93 1048.02,919.41 1048.35,918.89 1048.69,918.37 1049.03,917.85 1049.36,917.33 1049.70,916.81 1050.04,916.29 1050.37,915.78 1050.71,915.26 1051.05,914.74 1051.38,914.22 1051.72,913.70 1052.06,913.18 1052.39,912.66 1052.73,912.14 1053.07,911.62 1053.40,911.10 1053.74,910.58 1054.08,910.06 1054.41,909.54 1054.75,909.02 1055.09,908.51 1055.42,907.99 1055.76,907.47 1056.10,906.95 1056.43,906.43 1056.77,905.91 1057.11,905.39 1057.44,904.87 1057.78,904.35 1058.12,903.83 1058.45,903.31 1058.79,902.79 1059.13,902.27 1059.46,901.75 1059.80,901.23 1060.14,900.71 1060.47,900.19 1060.81,899.67 1061.15,899.15 1061.48,898.63 1061.82,898.11 1062.16,897.59 1062.49,897.07 1062.83,896.55 1063.17,896.03 1063.50,895.51 1063.84,894.99 1064.18,894.47 1064.51,893.95 1064.85,893.43 1065.19,892.91 1065.52,892.39 1065.86,891.87 1066.20,891.35 1066.53,890.83 1066.87,890.31 1067.21,889.79 1067.54,889.27 1067.88,888.75 1068.22,888.23 1068.55,887.71 1068.89,887.19 1069.23,886.67 1069.56,886.15 1069.90,885.63 1070.24,885.11 1070.57,884.58 1070.91,884.06 1071.25,883.54 1071.58,883.02 1071.92,882.50 1072.26,881.98 1072.59,881.46 1072.93,880.94 1073.27,880.42 1073.60,879.90 1073.94,879.38 1074.28,878.86 1074.61,878.34 1074.95,877.82 1075.29,877.29 1075.62,876.77 1075.96,876.25 1076.30,875.73 1076.63,875.21 1076.97,874.69 1077.31,874.17 1077.64,873.65 1077.98,873.13 1078.32,872.61 1078.65,872.08 1078.99,871.56 1079.33,871.04 1079.66,870.52 1080.00,870.00" fill="none" stroke="#aa2222" stroke-width="1.2"/>
<text x="75" y="874.0" class="title">w(x) [mm]</text>
<text x="10" y="874.0">min 0.000</text>
<text x="10" y="890.0">max 117.620</text>
</svg>
